<svg version="1.1" viewBox="0.0 0.0 297.750656167979 168.249343832021" fill="none" stroke="none" stroke-linecap="square" stroke-miterlimit="10" xmlns:xlink="http://www.w3.org/1999/xlink" xmlns="http://www.w3.org/2000/svg"><clipPath id="p.0"><path d="m0 0l297.75067 0l0 168.24934l-297.75067 0l0 -168.24934z" clip-rule="nonzero"/></clipPath><g clip-path="url(#p.0)"><path fill="#000000" fill-opacity="0.0" d="m0 0l297.75067 0l0 168.24934l-297.75067 0z" fill-rule="evenodd"/><path fill="#1ed2f4" d="m16.588562 3.317802l0 0c1.8322887 -1.8322883 4.8030148 -1.8322883 6.6353035 0l142.971 142.97101c0.8798981 0.8798981 1.3742218 2.073288 1.3742218 3.3176422c0 1.2443695 -0.49432373 2.4377594 -1.3742218 3.3176575l-13.270203 13.270203c-1.8322906 1.8322906 -4.803009 1.8322906 -6.6352997 0l-142.971 -142.971c-1.8322885 -1.8322887 -1.8322885 -4.8030148 0 -6.6353035z" fill-rule="evenodd"/><path fill="#1ed2f4" d="m133.31836 152.9241l0 0c-1.8322906 -1.8322906 -1.8322906 -4.803009 0 -6.6352997l142.97098 -142.97101c0.87991333 -0.8798959 2.0733032 -1.3742162 3.3176575 -1.3742162c1.2443542 0 2.4377747 0.49432027 3.3176575 1.3742162l13.270203 13.270208c1.8323059 1.8322887 1.8323059 4.8030148 0 6.6353035l-142.971 142.971c-1.8322906 1.8322906 -4.803009 1.8322906 -6.6352997 0z" fill-rule="evenodd"/></g></svg>