<svg version="1.1" viewBox="0.0 0.0 482.0 573.0" fill="none" stroke="none" stroke-linecap="square" stroke-miterlimit="10" xmlns:xlink="http://www.w3.org/1999/xlink" xmlns="http://www.w3.org/2000/svg"><clipPath id="p.0"><path d="m0 0l482.0 0l0 573.0l-482.0 0l0 -573.0z" clip-rule="nonzero"/></clipPath><g clip-path="url(#p.0)"><path fill="#000000" fill-opacity="0.0" d="m0 0l482.0 0l0 573.0l-482.0 0z" fill-rule="evenodd"/><path fill="#eafc40" d="m89.1916 564.673l-51.41424 -540.8823l431.72922 90.20516z" fill-rule="evenodd"/><path fill="#1ed2f4" d="m468.62875 113.65117l-24.418488 321.92017l-355.739 128.28455z" fill-rule="evenodd"/><path fill="#000000" fill-opacity="0.0" d="m118.49869 -21.204725l321.00787 0l0 297.98425l-321.00787 0z" fill-rule="evenodd"/><path fill="#254558" d="m234.70181 171.38902l0 137.20314q0 38.0 6.390625 44.40625q3.609375 3.203125 9.609375 3.203125q12.0 0 21.59375 -15.59375q9.609375 -15.609375 9.609375 -41.21875l0 -124.39064l70.796875 -3.609375l0 166.40627q0 17.203125 11.59375 17.203125q13.609375 0 16.0 -41.203125l6.0 0.40625q-1.59375 35.1875 -13.203125 48.390625q-11.59375 13.203125 -36.203125 13.203125q-24.59375 0 -37.796875 -10.796875q-13.1875 -10.796875 -17.1875 -28.796875q-6.40625 17.59375 -19.609375 28.796875q-13.203125 11.203125 -29.0 11.203125q-15.796875 0 -27.203125 -6.59375q-11.390625 -6.609375 -21.0 -27.40625l-1.59375 1.1875l23.203125 56.8125q1.59375 4.0 4.796875 11.59375q3.203125 7.59375 4.203125 10.390625q1.0 2.8125 2.59375 7.203125q2.796875 8.40625 2.796875 15.40625q0 7.0 -8.0 12.59375q-8.0 5.609375 -17.1875 3.609375l-36.40625 -7.609375l0 -278.39062l75.203125 -3.609375z" fill-rule="nonzero"/></g></svg>