<svg version="1.1" viewBox="0.0 0.0 1000.0 660.485564304462" fill="none" stroke="none" stroke-linecap="square" stroke-miterlimit="10" xmlns:xlink="http://www.w3.org/1999/xlink" xmlns="http://www.w3.org/2000/svg" width="100px" height="66px"><clipPath id="p.0"><path d="m0 0l1000.0 0l0 660.48553l-1000.0 0l0 -660.48553z" clip-rule="nonzero"/></clipPath><g clip-path="url(#p.0)"><path fill="#000000" fill-opacity="0.0" d="m0 0l1000.0 0l0 660.48553l-1000.0 0z" fill-rule="evenodd"/><path fill="#ffffff" d="m0 55.630844l0 0c0 -30.724068 24.906776 -55.630844 55.630844 -55.630844l888.7383 0c14.754211 0 28.904175 5.8610897 39.336975 16.293896c10.4328 10.432808 16.293884 24.58273 16.293884 39.33695l0 547.7934c0 30.72406 -24.9068 55.63086 -55.63086 55.63086l-888.7383 0c-30.724068 0 -55.630844 -24.9068 -55.630844 -55.63086z" fill-rule="evenodd"/><path fill="#1ed2f4" d="m212.38991 286.56406l0 0c-33.45746 -6.331665 -62.86589 -26.080536 -81.38692 -54.654343c-18.521034 -28.573807 -24.54081 -63.482758 -16.659546 -96.609436l31.884354 7.5856934l0 0c-5.808182 24.41304 -1.3718414 50.13954 12.27742 71.197296c13.649261 21.057755 35.322098 35.611862 59.978897 40.278046z" fill-rule="evenodd"/><path fill="#1ed2f4" d="m114.249245 138.18109l0 0c0 -14.162491 11.480965 -25.643456 25.643456 -25.643456l0 0c6.801071 0 13.323578 2.7017136 18.13266 7.5107956c4.809082 4.809082 7.510803 11.331589 7.510803 18.13266l0 0c0 14.162491 -11.480972 25.643463 -25.643463 25.643463l0 0c-14.162491 0 -25.643456 -11.480972 -25.643456 -25.643463z" fill-rule="evenodd"/><path fill="#1ed2f4" d="m185.40083 260.61597l0 0c0 -14.162491 11.480972 -25.643448 25.643463 -25.643448l0 0c6.801056 0 13.323578 2.701706 18.13266 7.510788c4.809082 4.809082 7.510788 11.331604 7.510788 18.13266l0 0c0 14.162506 -11.480957 25.643463 -25.643448 25.643463l0 0c-14.162491 0 -25.643463 -11.480957 -25.643463 -25.643463z" fill-rule="evenodd"/><path fill="#000000" fill-opacity="0.0" d="m342.36746 187.5853c5.543976 5.9440155 21.954346 35.42607 33.263855 35.664047c11.309479 0.23797607 22.840118 -34.23622 34.59311 -34.23622c11.753021 0 25.058868 34.23622 35.924866 34.23622c10.865997 0 18.183594 -34.23622 29.271118 -34.23622c11.087555 0 25.50116 34.474197 37.25415 34.23622c11.752991 -0.23797607 22.175903 -35.664047 33.263855 -35.664047c11.087952 0 21.954346 35.42607 33.263855 35.664047c11.309509 0.23797607 23.062073 -34.23622 34.59314 -34.23622c11.531006 0 23.28363 34.23622 34.59314 34.23622c11.309448 0 21.954346 -34.23622 33.263855 -34.23622c11.309448 0 23.28363 34.23622 34.59308 34.23622c11.309509 0 21.954407 -34.23622 33.263855 -34.23622c11.309509 0 23.283691 34.474197 34.59314 34.23622c11.309509 -0.23797607 21.954346 -35.664047 33.263855 -35.664047c11.309509 0 23.28363 35.90158 34.59314 35.664047c11.309509 -0.23753357 22.619812 -36.376205 33.263855 -37.089233c10.644043 -0.7130432 25.500305 27.342514 30.600403 32.81102" fill-rule="evenodd"/><path stroke="#1ed2f4" stroke-width="3.0" stroke-linejoin="round" stroke-linecap="butt" d="m342.36746 187.5853c5.543976 5.9440155 21.954346 35.42607 33.263855 35.664047c11.309479 0.23797607 22.840118 -34.23622 34.59311 -34.23622c11.753021 0 25.058868 34.23622 35.924866 34.23622c10.865997 0 18.183594 -34.23622 29.271118 -34.23622c11.087555 0 25.50116 34.474197 37.25415 34.23622c11.752991 -0.23797607 22.175903 -35.664047 33.263855 -35.664047c11.087952 0 21.954346 35.42607 33.263855 35.664047c11.309509 0.23797607 23.062073 -34.23622 34.59314 -34.23622c11.531006 0 23.28363 34.23622 34.59314 34.23622c11.309448 0 21.954346 -34.23622 33.263855 -34.23622c11.309448 0 23.28363 34.23622 34.59308 34.23622c11.309509 0 21.954407 -34.23622 33.263855 -34.23622c11.309509 0 23.283691 34.474197 34.59314 34.23622c11.309509 -0.23797607 21.954346 -35.664047 33.263855 -35.664047c11.309509 0 23.28363 35.90158 34.59314 35.664047c11.309509 -0.23753357 22.619812 -36.376205 33.263855 -37.089233c10.644043 -0.7130432 25.500305 27.342514 30.600403 32.81102" fill-rule="evenodd"/><path fill="#1ed2f4" d="m78.5538 410.60153l0 0c0 -13.655182 11.069717 -24.724884 24.724907 -24.724884l160.25098 0c6.557434 0 12.846313 2.6049194 17.483154 7.2417603c4.6368103 4.6368103 7.2417603 10.92569 7.2417603 17.483124l0 98.89667c0 13.655182 -11.069733 24.724884 -24.724915 24.724884l-160.25098 0c-13.6551895 0 -24.724907 -11.069702 -24.724907 -24.724884z" fill-rule="evenodd"/><path fill="#000000" fill-opacity="0.0" d="m78.5538 415.83203l106.897644 55.62204" fill-rule="evenodd"/><path stroke="#ffffff" stroke-width="4.0" stroke-linejoin="round" stroke-linecap="butt" d="m78.5538 415.83203l106.897644 55.62204" fill-rule="evenodd"/><path fill="#000000" fill-opacity="0.0" d="m289.5853 414.40683l-104.12598 57.29132" fill-rule="evenodd"/><path stroke="#ffffff" stroke-width="4.0" stroke-linejoin="round" stroke-linecap="butt" d="m289.5853 414.40683l-104.12598 57.29132" fill-rule="evenodd"/><path fill="#000000" fill-opacity="0.0" d="m342.36746 426.59842c5.543976 5.9440002 21.954346 35.426086 33.263855 35.664062c11.309479 0.23794556 22.840118 -34.236237 34.59311 -34.236237c11.753021 0 25.058868 34.236237 35.924866 34.236237c10.865997 0 18.183594 -34.236237 29.271118 -34.236237c11.087555 0 25.50116 34.474182 37.25415 34.236237c11.752991 -0.23797607 22.175903 -35.664062 33.263855 -35.664062c11.087952 0 21.954346 35.426086 33.263855 35.664062c11.309509 0.23794556 23.062073 -34.236237 34.59314 -34.236237c11.531006 0 23.28363 34.236237 34.59314 34.236237c11.309448 0 21.954346 -34.236237 33.263855 -34.236237c11.309448 0 23.28363 34.236237 34.59308 34.236237c11.309509 0 21.954407 -34.236237 33.263855 -34.236237c11.309509 0 23.283691 34.474182 34.59314 34.236237c11.309509 -0.23797607 21.954346 -35.664062 33.263855 -35.664062c11.309509 0 23.28363 35.90158 34.59314 35.664062c11.309509 -0.23754883 22.619812 -36.37622 33.263855 -37.089264c10.644043 -0.7130127 25.500305 27.34253 30.600403 32.811035" fill-rule="evenodd"/><path stroke="#1ed2f4" stroke-width="3.0" stroke-linejoin="round" stroke-linecap="butt" d="m342.36746 426.59842c5.543976 5.9440002 21.954346 35.426086 33.263855 35.664062c11.309479 0.23794556 22.840118 -34.236237 34.59311 -34.236237c11.753021 0 25.058868 34.236237 35.924866 34.236237c10.865997 0 18.183594 -34.236237 29.271118 -34.236237c11.087555 0 25.50116 34.474182 37.25415 34.236237c11.752991 -0.23797607 22.175903 -35.664062 33.263855 -35.664062c11.087952 0 21.954346 35.426086 33.263855 35.664062c11.309509 0.23794556 23.062073 -34.236237 34.59314 -34.236237c11.531006 0 23.28363 34.236237 34.59314 34.236237c11.309448 0 21.954346 -34.236237 33.263855 -34.236237c11.309448 0 23.28363 34.236237 34.59308 34.236237c11.309509 0 21.954407 -34.236237 33.263855 -34.236237c11.309509 0 23.283691 34.474182 34.59314 34.236237c11.309509 -0.23797607 21.954346 -35.664062 33.263855 -35.664062c11.309509 0 23.28363 35.90158 34.59314 35.664062c11.309509 -0.23754883 22.619812 -36.37622 33.263855 -37.089264c10.644043 -0.7130127 25.500305 27.34253 30.600403 32.811035" fill-rule="evenodd"/></g></svg>