<svg version="1.1" viewBox="0.0 0.0 1000.0 1000.0" fill="none" stroke="none" stroke-linecap="square" stroke-miterlimit="10" xmlns:xlink="http://www.w3.org/1999/xlink" xmlns="http://www.w3.org/2000/svg"><clipPath id="p.0"><path d="m0 0l1000.0 0l0 1000.0l-1000.0 0l0 -1000.0z" clip-rule="nonzero"/></clipPath><g clip-path="url(#p.0)"><path fill="#000000" fill-opacity="0.0" d="m0 0l1000.0 0l0 1000.0l-1000.0 0z" fill-rule="evenodd"/><path fill="#ffffff" d="m0 226.10329l0 0c0 -30.724075 24.906776 -55.630844 55.630844 -55.630844l888.7383 0c14.754211 0 28.904175 5.861084 39.336975 16.2939c10.4328 10.4328 16.293884 24.582718 16.293884 39.336945l0 547.79346c0 30.72406 -24.9068 55.63086 -55.63086 55.63086l-888.7383 0c-30.724068 0 -55.630844 -24.9068 -55.630844 -55.63086z" fill-rule="evenodd"/><path fill="#1ed2f4" d="m212.38991 457.0365l0 0c-33.45746 -6.331665 -62.86589 -26.080536 -81.38692 -54.654327c-18.521034 -28.573822 -24.54081 -63.482788 -16.659546 -96.60947l31.884354 7.5856934l0 0c-5.808182 24.413055 -1.3718414 50.139557 12.27742 71.197296c13.649261 21.05777 35.322098 35.611877 59.978897 40.278076z" fill-rule="evenodd"/><path fill="#1ed2f4" d="m114.249245 308.65353l0 0c0 -14.162476 11.480965 -25.643463 25.643456 -25.643463l0 0c6.801071 0 13.323578 2.7017212 18.13266 7.510803c4.809082 4.809082 7.510803 11.331604 7.510803 18.13266l0 0c0 14.162506 -11.480972 25.643463 -25.643463 25.643463l0 0c-14.162491 0 -25.643456 -11.480957 -25.643456 -25.643463z" fill-rule="evenodd"/><path fill="#1ed2f4" d="m185.40083 431.0884l0 0c0 -14.162476 11.480972 -25.643463 25.643463 -25.643463l0 0c6.801056 0 13.323578 2.7017212 18.13266 7.510803c4.809082 4.809082 7.510788 11.331604 7.510788 18.13266l0 0c0 14.162506 -11.480957 25.643463 -25.643448 25.643463l0 0c-14.162491 0 -25.643463 -11.480957 -25.643463 -25.643463z" fill-rule="evenodd"/><path fill="#000000" fill-opacity="0.0" d="m342.36746 358.05774c5.543976 5.9440002 21.954346 35.426086 33.263855 35.664032c11.309479 0.23797607 22.840118 -34.236206 34.59311 -34.236206c11.753021 0 25.058868 34.236206 35.924866 34.236206c10.865997 0 18.183594 -34.236206 29.271118 -34.236206c11.087555 0 25.50116 34.474182 37.25415 34.236206c11.752991 -0.23794556 22.175903 -35.664032 33.263855 -35.664032c11.087952 0 21.954346 35.426086 33.263855 35.664032c11.309509 0.23797607 23.062073 -34.236206 34.59314 -34.236206c11.531006 0 23.28363 34.236206 34.59314 34.236206c11.309448 0 21.954346 -34.236206 33.263855 -34.236206c11.309448 0 23.28363 34.236206 34.59308 34.236206c11.309509 0 21.954407 -34.236206 33.263855 -34.236206c11.309509 0 23.283691 34.474182 34.59314 34.236206c11.309509 -0.23794556 21.954346 -35.664032 33.263855 -35.664032c11.309509 0 23.28363 35.90158 34.59314 35.664032c11.309509 -0.23751831 22.619812 -36.37619 33.263855 -37.089233c10.644043 -0.7130127 25.500305 27.34253 30.600403 32.811035" fill-rule="evenodd"/><path stroke="#1ed2f4" stroke-width="3.0" stroke-linejoin="round" stroke-linecap="butt" d="m342.36746 358.05774c5.543976 5.9440002 21.954346 35.426086 33.263855 35.664032c11.309479 0.23797607 22.840118 -34.236206 34.59311 -34.236206c11.753021 0 25.058868 34.236206 35.924866 34.236206c10.865997 0 18.183594 -34.236206 29.271118 -34.236206c11.087555 0 25.50116 34.474182 37.25415 34.236206c11.752991 -0.23794556 22.175903 -35.664032 33.263855 -35.664032c11.087952 0 21.954346 35.426086 33.263855 35.664032c11.309509 0.23797607 23.062073 -34.236206 34.59314 -34.236206c11.531006 0 23.28363 34.236206 34.59314 34.236206c11.309448 0 21.954346 -34.236206 33.263855 -34.236206c11.309448 0 23.28363 34.236206 34.59308 34.236206c11.309509 0 21.954407 -34.236206 33.263855 -34.236206c11.309509 0 23.283691 34.474182 34.59314 34.236206c11.309509 -0.23794556 21.954346 -35.664032 33.263855 -35.664032c11.309509 0 23.28363 35.90158 34.59314 35.664032c11.309509 -0.23751831 22.619812 -36.37619 33.263855 -37.089233c10.644043 -0.7130127 25.500305 27.34253 30.600403 32.811035" fill-rule="evenodd"/><path fill="#1ed2f4" d="m78.5538 581.074l0 0c0 -13.655151 11.069717 -24.724915 24.724907 -24.724915l160.25098 0c6.557434 0 12.846313 2.6049805 17.483154 7.2417603c4.6368103 4.636841 7.2417603 10.92572 7.2417603 17.483154l0 98.89667c0 13.655151 -11.069733 24.724915 -24.724915 24.724915l-160.25098 0c-13.6551895 0 -24.724907 -11.069763 -24.724907 -24.724915z" fill-rule="evenodd"/><path fill="#000000" fill-opacity="0.0" d="m78.5538 586.30444l106.897644 55.62207" fill-rule="evenodd"/><path stroke="#ffffff" stroke-width="4.0" stroke-linejoin="round" stroke-linecap="butt" d="m78.5538 586.30444l106.897644 55.62207" fill-rule="evenodd"/><path fill="#000000" fill-opacity="0.0" d="m289.5853 584.8793l-104.12598 57.29132" fill-rule="evenodd"/><path stroke="#ffffff" stroke-width="4.0" stroke-linejoin="round" stroke-linecap="butt" d="m289.5853 584.8793l-104.12598 57.29132" fill-rule="evenodd"/><path fill="#000000" fill-opacity="0.0" d="m342.36746 597.07086c5.543976 5.944031 21.954346 35.426086 33.263855 35.664062c11.309479 0.23797607 22.840118 -34.236267 34.59311 -34.236267c11.753021 0 25.058868 34.236267 35.924866 34.236267c10.865997 0 18.183594 -34.236267 29.271118 -34.236267c11.087555 0 25.50116 34.474243 37.25415 34.236267c11.752991 -0.23797607 22.175903 -35.664062 33.263855 -35.664062c11.087952 0 21.954346 35.426086 33.263855 35.664062c11.309509 0.23797607 23.062073 -34.236267 34.59314 -34.236267c11.531006 0 23.28363 34.236267 34.59314 34.236267c11.309448 0 21.954346 -34.236267 33.263855 -34.236267c11.309448 0 23.28363 34.236267 34.59308 34.236267c11.309509 0 21.954407 -34.236267 33.263855 -34.236267c11.309509 0 23.283691 34.474243 34.59314 34.236267c11.309509 -0.23797607 21.954346 -35.664062 33.263855 -35.664062c11.309509 0 23.28363 35.90155 34.59314 35.664062c11.309509 -0.23754883 22.619812 -36.37622 33.263855 -37.089233c10.644043 -0.71307373 25.500305 27.342468 30.600403 32.810974" fill-rule="evenodd"/><path stroke="#1ed2f4" stroke-width="3.0" stroke-linejoin="round" stroke-linecap="butt" d="m342.36746 597.07086c5.543976 5.944031 21.954346 35.426086 33.263855 35.664062c11.309479 0.23797607 22.840118 -34.236267 34.59311 -34.236267c11.753021 0 25.058868 34.236267 35.924866 34.236267c10.865997 0 18.183594 -34.236267 29.271118 -34.236267c11.087555 0 25.50116 34.474243 37.25415 34.236267c11.752991 -0.23797607 22.175903 -35.664062 33.263855 -35.664062c11.087952 0 21.954346 35.426086 33.263855 35.664062c11.309509 0.23797607 23.062073 -34.236267 34.59314 -34.236267c11.531006 0 23.28363 34.236267 34.59314 34.236267c11.309448 0 21.954346 -34.236267 33.263855 -34.236267c11.309448 0 23.28363 34.236267 34.59308 34.236267c11.309509 0 21.954407 -34.236267 33.263855 -34.236267c11.309509 0 23.283691 34.474243 34.59314 34.236267c11.309509 -0.23797607 21.954346 -35.664062 33.263855 -35.664062c11.309509 0 23.28363 35.90155 34.59314 35.664062c11.309509 -0.23754883 22.619812 -36.37622 33.263855 -37.089233c10.644043 -0.71307373 25.500305 27.342468 30.600403 32.810974" fill-rule="evenodd"/></g></svg>