<svg version="1.1" viewBox="0.0 0.0 227.0 157.0" fill="none" stroke="none" stroke-linecap="square" stroke-miterlimit="10" xmlns:xlink="http://www.w3.org/1999/xlink" xmlns="http://www.w3.org/2000/svg"><clipPath id="p.0"><path d="m0 0l227.0 0l0 157.0l-227.0 0l0 -157.0z" clip-rule="nonzero"/></clipPath><g clip-path="url(#p.0)"><path fill="#000000" fill-opacity="0.0" d="m0 0l227.0 0l0 157.0l-227.0 0z" fill-rule="evenodd"/><path fill="#ffffff" d="m0 135.60901l0 0c0 -2.3628387 1.9154605 -4.278305 4.278301 -4.278305l218.43552 0c1.1346741 0 2.2228851 0.4507599 3.0252228 1.2530975c0.80233765 0.8023224 1.2530823 1.8905334 1.2530823 3.0252075l0 17.112686c0 2.3628387 -1.9154663 4.278305 -4.278305 4.278305l-218.43552 0c-2.3628402 0 -4.278301 -1.9154663 -4.278301 -4.278305z" fill-rule="evenodd"/><path fill="#ffffff" d="m0 4.278301l0 0c0 -2.3628402 1.9154605 -4.278301 4.278301 -4.278301l218.43552 0c1.1346741 0 2.2228851 0.45074826 3.0252228 1.2530853c0.80233765 0.80233705 1.2530823 1.8905395 1.2530823 3.0252156l0 17.11269c0 2.3628387 -1.9154663 4.2782993 -4.278305 4.2782993l-218.43552 0c-2.3628402 0 -4.278301 -1.9154606 -4.278301 -4.2782993z" fill-rule="evenodd"/><path fill="#ffffff" d="m0 69.94366l0 0c0 -2.3628387 1.9154605 -4.278305 4.278301 -4.278305l218.43552 0c1.1346741 0 2.2228851 0.45075226 3.0252228 1.2530899c0.80233765 0.80233765 1.2530823 1.8905411 1.2530823 3.0252151l0 17.112686c0 2.3628387 -1.9154663 4.278305 -4.278305 4.278305l-218.43552 0c-2.3628402 0 -4.278301 -1.9154663 -4.278301 -4.278305z" fill-rule="evenodd"/></g></svg>