<svg version="1.1" viewBox="0.0 0.0 524.8503937007874 524.8503937007874" fill="none" stroke="none" stroke-linecap="square" stroke-miterlimit="10" xmlns:xlink="http://www.w3.org/1999/xlink" xmlns="http://www.w3.org/2000/svg"><clipPath id="p.0"><path d="m0 0l524.8504 0l0 524.8504l-524.8504 0l0 -524.8504z" clip-rule="nonzero"/></clipPath><g clip-path="url(#p.0)"><path fill="#000000" fill-opacity="0.0" d="m0 0l524.8504 0l0 524.8504l-524.8504 0z" fill-rule="evenodd"/><path fill="#ffffff" d="m48.425186 9.685325l0 0c5.3490067 -5.3490067 14.021458 -5.3490067 19.370468 0l452.1571 452.15707c2.5686646 2.568695 4.0117188 6.052582 4.0117188 9.685242c0 3.63266 -1.4430542 7.1165466 -4.0117188 9.685242l-38.739777 38.739746c-5.3490295 5.348999 -14.021454 5.348999 -19.370483 0l-452.15707 -452.15707c-5.349006 -5.3490105 -5.349006 -14.0214615 0 -19.370468z" fill-rule="evenodd"/><path fill="#ffffff" d="m9.685414 481.2129l0 0c-5.349006 -5.348999 -5.349006 -14.021454 0 -19.370483l452.15707 -452.15707c2.568695 -2.5686836 6.052582 -4.011755 9.685242 -4.011755c3.63266 0 7.1165466 1.4430714 9.685242 4.011755l38.739777 38.73977c5.348999 5.3490067 5.348999 14.021458 0 19.370468l-452.1571 452.15707c-5.3490105 5.348999 -14.0214615 5.348999 -19.370468 0z" fill-rule="evenodd"/></g></svg>