<svg version="1.1" viewBox="0.0 0.0 926.0 510.0" fill="none" stroke="none" stroke-linecap="square" stroke-miterlimit="10" xmlns:xlink="http://www.w3.org/1999/xlink" xmlns="http://www.w3.org/2000/svg"><clipPath id="p.0"><path d="m0 0l926.0 0l0 510.0l-926.0 0l0 -510.0z" clip-rule="nonzero"/></clipPath><g clip-path="url(#p.0)"><path fill="#000000" fill-opacity="0.0" d="m0 0l926.0 0l0 510.0l-926.0 0z" fill-rule="evenodd"/><path fill="#cfe2f3" d="m40.181103 8.643122l0 0c0 -2.1338038 1.7297897 -3.863594 3.863594 -3.863594l695.8319 0c1.0246582 0 2.0073853 0.40705585 2.7319336 1.1316204c0.7246094 0.72456455 1.1316528 1.7072849 1.1316528 2.7319736l0 15.453915c0 2.1338043 -1.7297974 3.863594 -3.8635864 3.863594l-695.8319 0l0 0c-2.1338043 0 -3.863594 -1.7297897 -3.863594 -3.863594z" fill-rule="evenodd"/><path fill="#cfe2f3" d="m44.454155 574.8268l0 0c-2.3599434 0 -4.273052 -1.913147 -4.273052 -4.2730713l0 -561.50116c0 -1.1332836 0.4501953 -2.220151 1.2515488 -3.0215034c0.80134964 -0.8013525 1.8882179 -1.2515478 3.0215034 -1.2515478l17.09169 0c2.3599434 0 4.273056 1.9131103 4.273056 4.2730513l0 561.50116c0 2.3599243 -1.9131126 4.2730713 -4.273056 4.2730713z" fill-rule="evenodd"/><path fill="#9fc5e8" d="m386.7467 16.370079l0 0c0 -2.8788385 2.3337708 -5.212599 5.212616 -5.212599l0 0c1.3824768 0 2.708313 0.5491829 3.685852 1.5267344c0.9775696 0.9775524 1.5267334 2.3033972 1.5267334 3.6858644l0 0c0 2.8788376 -2.3337402 5.212599 -5.2125854 5.212599l0 0c-2.8788452 0 -5.212616 -2.3337612 -5.212616 -5.212599z" fill-rule="evenodd"/><path fill="#cfe2f3" d="m648.8294 113.83218l0 0c0 -4.325592 3.5065918 -7.832176 7.8321533 -7.832176l226.31989 0c2.0772705 0 4.069397 0.8251724 5.538208 2.293991c1.468811 1.4688187 2.2940063 3.4609604 2.2940063 5.538185l0 31.327766c0 4.325592 -3.5065918 7.832184 -7.8322144 7.832184l-226.31989 0l0 0c-4.3255615 0 -7.8321533 -3.5065918 -7.8321533 -7.832184z" fill-rule="evenodd"/><path fill="#cfe2f3" d="m650.4987 530.0l0 0c-0.92193604 0 -1.6693115 -0.7473755 -1.6693115 -1.6693115l0 -408.66138c0 -0.44273376 0.17584229 -0.86733246 0.48895264 -1.1803894c0.31304932 -0.31306458 0.73760986 -0.48893738 1.1803589 -0.48893738l6.677124 0c0.92193604 0 1.6693115 0.7473831 1.6693115 1.6693268l0 408.66138l0 0c0 0.92193604 -0.7473755 1.6693115 -1.6693115 1.6693115z" fill-rule="evenodd"/><path fill="#cfe2f3" d="m882.4672 530.0l0 0c-0.92193604 0 -1.6693115 -0.7473755 -1.6693115 -1.6693115l0 -408.66138c0 -0.44273376 0.17584229 -0.86733246 0.4888916 -1.1803894c0.31311035 -0.31306458 0.7376709 -0.48893738 1.1804199 -0.48893738l6.677124 0c0.92193604 0 1.6693115 0.7473831 1.6693115 1.6693268l0 408.66138l0 0c0 0.92193604 -0.7473755 1.6693115 -1.6693115 1.6693115z" fill-rule="evenodd"/><path fill="#cfe2f3" d="m-19.818897 504.31238l0 0c0 -0.95962524 0.777935 -1.7375793 1.7375679 -1.7375793l962.1627 0c0.46081543 0 0.902771 0.18307495 1.2286377 0.50891113c0.32580566 0.3258667 0.50891113 0.76782227 0.50891113 1.2286682l0 6.9500427c0 0.95962524 -0.7779541 1.7375793 -1.7375488 1.7375793l-962.1627 0c-0.9596329 0 -1.7375679 -0.7779541 -1.7375679 -1.7375793z" fill-rule="evenodd"/><path fill="#cfe2f3" d="m722.3754 137.0l0 0c-2.3599243 0 -4.2730713 -1.9131165 -4.2730713 -4.273056l0 -123.67436c0 -1.1332836 0.4501953 -2.220151 1.2515259 -3.0215034c0.8013916 -0.8013525 1.8882446 -1.2515478 3.0215454 -1.2515478l17.091675 0c2.3599243 0 4.2730713 1.9131103 4.2730713 4.2730513l0 123.67436l0 0c0 2.3599396 -1.913147 4.273056 -4.2730713 4.273056z" fill-rule="evenodd"/><path fill="#9fc5e8" d="m739.31757 124.95015l0 0c0 -0.52474976 0.42541504 -0.95014954 0.9501953 -0.95014954l59.107544 0c0.25201416 0 0.49365234 0.100105286 0.671875 0.2782898c0.17816162 0.17819214 0.27825928 0.41986847 0.27825928 0.67185974l0 3.8004913c0 0.52474976 -0.425354 0.95014954 -0.9501343 0.95014954l-59.107544 0l0 0c-0.5247803 0 -0.9501953 -0.42539978 -0.9501953 -0.95014954z" fill-rule="evenodd"/></g></svg>