<svg version="1.1" viewBox="0.0 0.0 297.6430446194226 408.23359580052494" fill="none" stroke="none" stroke-linecap="square" stroke-miterlimit="10" xmlns:xlink="http://www.w3.org/1999/xlink" xmlns="http://www.w3.org/2000/svg"><clipPath id="p.0"><path d="m0 0l297.64304 0l0 408.23358l-297.64304 0l0 -408.23358z" clip-rule="nonzero"/></clipPath><g clip-path="url(#p.0)"><path fill="#000000" fill-opacity="0.0" d="m0 0l297.64304 0l0 408.23358l-297.64304 0z" fill-rule="evenodd"/><path fill="#cfe2f3" d="m-604.7768 468.0761l0 0c-2.3599854 0 -4.2730713 -1.9131165 -4.2730713 -4.273041l0 -561.50116c0 -1.1332855 0.4501953 -2.2201538 1.2515259 -3.0215073c0.8013916 -0.80135345 1.8882446 -1.2515488 3.0215454 -1.2515488l17.091675 0c2.3599243 0 4.2730713 1.9131088 4.2730713 4.273056l0 561.50116c0 2.3599243 -1.913147 4.273041 -4.2730713 4.273041z" fill-rule="evenodd"/><path fill="#9fc5e8" d="m-262.48425 -90.38058l0 0c0 -2.8788376 2.3337708 -5.2126007 5.2125854 -5.2126007l0 0c1.3824768 0 2.7083282 0.5491867 3.6858826 1.5267334c0.9775543 0.9775543 1.5267334 2.3033981 1.5267334 3.6858673l0 0c0 2.8788376 -2.3337708 5.2126007 -5.212616 5.2126007l0 0c-2.8788147 0 -5.2125854 -2.3337631 -5.2125854 -5.2126007z" fill-rule="evenodd"/><path fill="#cfe2f3" d="m-0.4015748 7.0815215l0 0c0 -4.325592 3.5065854 -7.8321776 7.8321776 -7.8321776l226.3199 0c2.0772247 0 4.0693665 0.8251735 5.5381775 2.2939918c1.4688263 1.4688183 2.293991 3.4609632 2.293991 5.538186l0 31.327768c0 4.325596 -3.5065765 7.83218 -7.8321686 7.83218l-226.3199 0l0 0c-4.3255925 0 -7.8321776 -3.5065842 -7.8321776 -7.83218z" fill-rule="evenodd"/><path fill="#cfe2f3" d="m1.2677499 423.24933l0 0c-0.9219426 0 -1.6693246 -0.7473755 -1.6693246 -1.6693115l0 -408.66135c0 -0.4427328 0.17587477 -0.8673315 0.48893386 -1.1803913c0.3130591 -0.31305885 0.7376584 -0.48893356 1.1803908 -0.48893356l6.6770988 0c0.92194223 0 1.6693244 0.74738216 1.6693244 1.6693249l0 408.66135l0 0c0 0.92193604 -0.74738216 1.6693115 -1.6693244 1.6693115z" fill-rule="evenodd"/><path fill="#cfe2f3" d="m233.23625 423.24933l0 0c-0.92193604 0 -1.6693268 -0.7473755 -1.6693268 -1.6693115l0 -408.66135c0 -0.4427328 0.1758728 -0.8673315 0.48893738 -1.1803913c0.31306458 -0.31305885 0.73765564 -0.48893356 1.1803894 -0.48893356l6.6770935 0c0.9219513 0 1.6693268 0.74738216 1.6693268 1.6693249l0 408.66135l0 0c0 0.92193604 -0.7473755 1.6693115 -1.6693268 1.6693115z" fill-rule="evenodd"/><path fill="#cfe2f3" d="m-667.99475 399.54596l0 0c0 -0.95962524 0.7779541 -1.7375488 1.7375488 -1.7375488l962.1627 0c0.46081543 0 0.902771 0.18304443 1.2286377 0.50891113c0.3258667 0.3258667 0.50891113 0.76782227 0.50891113 1.2286377l0 6.9500732c0 0.95962524 -0.7779236 1.7375488 -1.7375488 1.7375488l-962.1627 0c-0.9595947 0 -1.7375488 -0.7779236 -1.7375488 -1.7375488z" fill-rule="evenodd"/><path fill="#9fc5e8" d="m90.08662 18.199493l0 0c0 -0.5247536 0.42539215 -0.95014954 0.95014954 -0.95014954l59.107567 0c0.2519989 0 0.4936676 0.100105286 0.67185974 0.2782917c0.17819214 0.17818832 0.2782898 0.41986275 0.2782898 0.67185783l0 3.8004875c0 0.5247536 -0.42538452 0.95014954 -0.95014954 0.95014954l-59.107567 0l0 0c-0.5247574 0 -0.95014954 -0.42539597 -0.95014954 -0.95014954z" fill-rule="evenodd"/></g></svg>