<svg version="1.1" viewBox="0.0 0.0 926.0 510.0" fill="none" stroke="none" stroke-linecap="square" stroke-miterlimit="10" xmlns:xlink="http://www.w3.org/1999/xlink" xmlns="http://www.w3.org/2000/svg"><clipPath id="p.0"><path d="m0 0l926.0 0l0 510.0l-926.0 0l0 -510.0z" clip-rule="nonzero"/></clipPath><g clip-path="url(#p.0)"><path fill="#000000" fill-opacity="0.0" d="m0 0l926.0 0l0 510.0l-926.0 0z" fill-rule="evenodd"/><path fill="#cfe2f3" d="m40.181103 40.643124l0 0c0 -2.1338043 1.7297897 -3.8635979 3.863594 -3.8635979l695.8319 0c1.0246582 0 2.0073853 0.40705872 2.7319336 1.1316223c0.7246094 0.7245636 1.1316528 1.707283 1.1316528 2.7319756l0 15.453911c0 2.1338043 -1.7297974 3.863594 -3.8635864 3.863594l-695.8319 0l0 0c-2.1338043 0 -3.863594 -1.7297897 -3.863594 -3.863594z" fill-rule="evenodd"/><path fill="#cfe2f3" d="m44.454155 606.8268l0 0c-2.3599434 0 -4.273052 -1.913147 -4.273052 -4.2730713l0 -561.50116c0 -1.1332817 0.4501953 -2.22015 1.2515488 -3.0215034c0.80134964 -0.80135345 1.8882179 -1.2515488 3.0215034 -1.2515488l17.09169 0c2.3599434 0 4.273056 1.9131126 4.273056 4.273052l0 561.50116c0 2.3599243 -1.9131126 4.2730713 -4.273056 4.2730713z" fill-rule="evenodd"/><path fill="#9fc5e8" d="m386.7467 48.37008l0 0c0 -2.8788376 2.3337708 -5.212597 5.212616 -5.212597l0 0c1.3824768 0 2.708313 0.5491829 3.685852 1.5267334c0.9775696 0.9775505 1.5267334 2.3033943 1.5267334 3.6858635l0 0c0 2.8788376 -2.3337402 5.212597 -5.2125854 5.212597l0 0c-2.8788452 0 -5.212616 -2.3337593 -5.212616 -5.212597z" fill-rule="evenodd"/><path fill="#cfe2f3" d="m-19.818897 504.31238l0 0c0 -0.95962524 0.777935 -1.7375793 1.7375679 -1.7375793l962.1627 0c0.46081543 0 0.902771 0.18307495 1.2286377 0.50891113c0.32580566 0.3258667 0.50891113 0.76782227 0.50891113 1.2286682l0 6.9500427c0 0.95962524 -0.7779541 1.7375793 -1.7375488 1.7375793l-962.1627 0c-0.9596329 0 -1.7375679 -0.7779541 -1.7375679 -1.7375793z" fill-rule="evenodd"/><path fill="#cfe2f3" d="m722.3754 548.5486l0 0c-2.3599243 0 -4.2730713 -1.913147 -4.2730713 -4.2730713l0 -503.23343c0 -1.1332817 0.4501953 -2.22015 1.2515259 -3.0215034c0.8013916 -0.80135345 1.8882446 -1.2515488 3.0215454 -1.2515488l17.091675 0c2.3599243 0 4.2730713 1.9131126 4.2730713 4.273052l0 503.23343l0 0c0 2.3599243 -1.913147 4.2730713 -4.2730713 4.2730713z" fill-rule="evenodd"/></g></svg>