<svg version="1.1" viewBox="0.0 0.0 241.54068241469815 417.6036745406824" fill="none" stroke="none" stroke-linecap="square" stroke-miterlimit="10" xmlns:xlink="http://www.w3.org/1999/xlink" xmlns="http://www.w3.org/2000/svg"><clipPath id="p.0"><path d="m0 0l241.54068 0l0 417.60367l-241.54068 0l0 -417.60367z" clip-rule="nonzero"/></clipPath><g clip-path="url(#p.0)"><path fill="#000000" fill-opacity="0.0" d="m0 0l241.54068 0l0 417.60367l-241.54068 0z" fill-rule="evenodd"/><path fill="#cfe2f3" d="m0 7.8321776l0 0c0 -4.325592 3.5065854 -7.8321776 7.8321776 -7.8321776l226.31989 0c2.0772247 0 4.0693665 0.8251735 5.5381927 2.2939918c1.468811 1.4688182 2.293991 3.460963 2.293991 5.538186l0 31.327768c0 4.325596 -3.5065918 7.83218 -7.832184 7.83218l-226.31989 0l0 0c-4.325592 0 -7.8321776 -3.5065842 -7.8321776 -7.83218z" fill-rule="evenodd"/><path fill="#cfe2f3" d="m1.6693248 424.0l0 0c-0.9219426 0 -1.6693248 -0.7473755 -1.6693248 -1.6693115l0 -408.66138c0 -0.4427328 0.17587478 -0.8673315 0.4889339 -1.1803913c0.31305912 -0.31305885 0.7376584 -0.48893356 1.1803908 -0.48893356l6.6770983 0c0.9219427 0 1.6693249 0.74738216 1.6693249 1.6693249l0 408.66138l0 0c0 0.92193604 -0.74738216 1.6693115 -1.6693249 1.6693115z" fill-rule="evenodd"/><path fill="#cfe2f3" d="m233.63783 424.0l0 0c-0.9219513 0 -1.6693268 -0.7473755 -1.6693268 -1.6693115l0 -408.66138c0 -0.4427328 0.1758728 -0.8673315 0.48893738 -1.1803913c0.31304932 -0.31305885 0.73765564 -0.48893356 1.1803894 -0.48893356l6.6770935 0c0.9219513 0 1.6693268 0.74738216 1.6693268 1.6693249l0 408.66138l0 0c0 0.92193604 -0.7473755 1.6693115 -1.6693268 1.6693115z" fill-rule="evenodd"/><path fill="#9fc5e8" d="m90.48819 18.95015l0 0c0 -0.5247536 0.42539978 -0.95014954 0.95014954 -0.95014954l59.107574 0c0.2519989 0 0.4936676 0.100105286 0.67185974 0.2782917c0.17819214 0.17818832 0.2782898 0.41986275 0.2782898 0.67185783l0 3.8004875c0 0.5247536 -0.42539978 0.95014954 -0.95014954 0.95014954l-59.107574 0l0 0c-0.52474976 0 -0.95014954 -0.42539597 -0.95014954 -0.95014954z" fill-rule="evenodd"/></g></svg>