<svg version="1.1" viewBox="0.0 0.0 926.0 510.0" fill="none" stroke="none" stroke-linecap="square" stroke-miterlimit="10" xmlns:xlink="http://www.w3.org/1999/xlink" xmlns="http://www.w3.org/2000/svg"><clipPath id="p.0"><path d="m0 0l926.0 0l0 510.0l-926.0 0l0 -510.0z" clip-rule="nonzero"/></clipPath><g clip-path="url(#p.0)"><path fill="#000000" fill-opacity="0.0" d="m0 0l926.0 0l0 510.0l-926.0 0z" fill-rule="evenodd"/><path fill="#cfe2f3" d="m648.8294 113.83218l0 0c0 -4.325592 3.5065918 -7.832176 7.8321533 -7.832176l226.31989 0c2.0772705 0 4.069397 0.8251724 5.538208 2.293991c1.468811 1.4688187 2.2940063 3.4609604 2.2940063 5.538185l0 31.327766c0 4.325592 -3.5065918 7.832184 -7.8322144 7.832184l-226.31989 0l0 0c-4.3255615 0 -7.8321533 -3.5065918 -7.8321533 -7.832184z" fill-rule="evenodd"/><path fill="#cfe2f3" d="m650.4987 530.0l0 0c-0.92193604 0 -1.6693115 -0.7473755 -1.6693115 -1.6693115l0 -408.66138c0 -0.44273376 0.17584229 -0.86733246 0.48895264 -1.1803894c0.31304932 -0.31306458 0.73760986 -0.48893738 1.1803589 -0.48893738l6.677124 0c0.92193604 0 1.6693115 0.7473831 1.6693115 1.6693268l0 408.66138l0 0c0 0.92193604 -0.7473755 1.6693115 -1.6693115 1.6693115z" fill-rule="evenodd"/><path fill="#cfe2f3" d="m882.4672 530.0l0 0c-0.92193604 0 -1.6693115 -0.7473755 -1.6693115 -1.6693115l0 -408.66138c0 -0.44273376 0.17584229 -0.86733246 0.4888916 -1.1803894c0.31311035 -0.31306458 0.7376709 -0.48893738 1.1804199 -0.48893738l6.677124 0c0.92193604 0 1.6693115 0.7473831 1.6693115 1.6693268l0 408.66138l0 0c0 0.92193604 -0.7473755 1.6693115 -1.6693115 1.6693115z" fill-rule="evenodd"/><path fill="#9fc5e8" d="m739.31757 124.95015l0 0c0 -0.52474976 0.42541504 -0.95014954 0.9501953 -0.95014954l59.107544 0c0.25201416 0 0.49365234 0.100105286 0.671875 0.2782898c0.17816162 0.17819214 0.27825928 0.41986847 0.27825928 0.67185974l0 3.8004913c0 0.52474976 -0.425354 0.95014954 -0.9501343 0.95014954l-59.107544 0l0 0c-0.5247803 0 -0.9501953 -0.42539978 -0.9501953 -0.95014954z" fill-rule="evenodd"/></g></svg>