<svg version="1.1" viewBox="0.0 0.0 474.8005249343832 372.56430446194224" fill="none" stroke="none" stroke-linecap="square" stroke-miterlimit="10" xmlns:xlink="http://www.w3.org/1999/xlink" xmlns="http://www.w3.org/2000/svg"><clipPath id="p.0"><path d="m0 0l474.80054 0l0 372.5643l-474.80054 0l0 -372.5643z" clip-rule="nonzero"/></clipPath><g clip-path="url(#p.0)"><path fill="#000000" fill-opacity="0.0" d="m0 0l474.80054 0l0 372.5643l-474.80054 0z" fill-rule="evenodd"/><path fill="#1ed2f4" d="m69.21362 114.467415l303.74878 -103.42865l21.700043 262.54675z" fill-rule="evenodd"/><path fill="#254558" d="m466.30093 306.85648l-260.18484 53.140564l-183.97264 -281.89645z" fill-rule="evenodd"/><path fill="#000000" fill-opacity="0.0" d="m191.28084 60.485565l89.22835 0l0 140.34645l-89.22835 0z" fill-rule="evenodd"/><path fill="#eafc40" d="m291.32773 222.71681l9.84375 21.6875q-5.1875 2.828125 -11.984375 4.59375q-6.78125 1.78125 -13.171875 1.78125q-8.203125 0 -21.875015 -3.875q-13.671875 -3.875 -20.234375 -3.875q-11.109375 0 -22.6875 7.9375l-9.75 -22.0625q10.296875 -7.375 14.796875 -15.71875q4.515625 -8.34375 4.515625 -15.90625q0 -2.453125 -0.359375 -5.1875l-18.953125 0l0 -20.140625l14.3125 0q-3.75 -10.765625 -3.75 -21.78125q0 -9.9375 5.421875 -18.953125q5.4375 -9.03125 15.359375 -13.71875q9.9375 -4.703125 21.703125 -4.703125q17.95314 0 28.60939 9.078125q10.671875 9.0625 13.03125 26.015625l-24.6875 3.640625q-1.734375 -9.75 -6.296875 -14.03125q-4.5625 -4.28125 -11.39064 -4.28125q-7.296875 0 -12.125 4.875q-4.828125 4.875 -4.828125 12.25q0 3.828125 1.3125 10.125q1.328125 6.28125 3.25 11.484375l28.437515 0l0 20.140625l-24.250015 0q0.28125 2.0 0.28125 4.0q0 7.203125 -2.734375 13.3125q-2.734375 6.109375 -11.21875 16.046875q5.015625 -2.5625 12.578125 -2.5625q3.1875 0 5.734375 0.375q1.28125 0.171875 7.4843903 1.71875q11.03125 2.828125 15.03125 2.828125q7.109375 0 18.59375 -5.09375z" fill-rule="nonzero"/></g></svg>