<svg version="1.1" viewBox="0.0 0.0 402.4409448818898 523.2729658792651" fill="none" stroke="none" stroke-linecap="square" stroke-miterlimit="10" xmlns:xlink="http://www.w3.org/1999/xlink" xmlns="http://www.w3.org/2000/svg"><clipPath id="p.0"><path d="m0 0l402.44095 0l0 523.27295l-402.44095 0l0 -523.27295z" clip-rule="nonzero"/></clipPath><path fill="#000000" fill-opacity="0.0" d="m0 0l402.44095 0l0 523.27295l-402.44095 0z" fill-rule="evenodd"/><path fill="#ffffff" d="m0 0l312.56693 0l0 444.37796l-312.56693 0z" fill-rule="evenodd"/><path stroke="#9eacb4" stroke-width="1.0" stroke-linejoin="round" stroke-linecap="butt" d="m0 0l312.56693 0l0 444.37796l-312.56693 0z" fill-rule="evenodd"/><path fill="#ffffff" d="m38.968502 32.97638l312.56693 0l0 444.37796l-312.56693 0z" fill-rule="evenodd"/><path stroke="#9eacb4" stroke-width="1.0" stroke-linejoin="round" stroke-linecap="butt" d="m38.968502 32.97638l312.56693 0l0 444.37796l-312.56693 0z" fill-rule="evenodd"/><path fill="#ffffff" d="m83.926506 71.944885l312.56693 0l0 444.37793l-312.56693 0z" fill-rule="evenodd"/><path stroke="#9eacb4" stroke-width="1.0" stroke-linejoin="round" stroke-linecap="butt" d="m83.926506 71.944885l312.56693 0l0 444.37793l-312.56693 0z" fill-rule="evenodd"/></svg>