<svg viewBox="0 0 297.751 168.249" fill="none" stroke-linecap="square" stroke-miterlimit="10" xmlns="http://www.w3.org/2000/svg"><clipPath id="a"><path d="M0 0h297.75v168.25H0V0z"/></clipPath><path fill="none" d="M0 0h297.75v168.25H0z"/><path fill="#1ed2f4" d="M16.589 3.318a4.692 4.692 0 0 1 6.635 0l142.97 142.97a4.692 4.692 0 0 1 0 6.636l-13.27 13.27a4.692 4.692 0 0 1-6.635 0L3.32 23.224a4.692 4.692 0 0 1 0-6.636z" fill-rule="evenodd"/><path fill="#1ed2f4" d="M133.318 152.924a4.692 4.692 0 0 1 0-6.635L276.29 3.318a4.692 4.692 0 0 1 6.636 0l13.27 13.27a4.692 4.692 0 0 1 0 6.635L153.224 166.194a4.692 4.692 0 0 1-6.635 0z" fill-rule="evenodd"/></svg>