<svg viewBox="0 0 311.688 366.824" fill="none" stroke-linecap="square" stroke-miterlimit="10" xmlns="http://www.w3.org/2000/svg"><clipPath id="a"><path d="M0 0h311.688v366.824H0V0z"/></clipPath><g clip-path="url(#a)"><path fill="none" d="M0 0h311.688v366.824H0z"/><path fill="#fff" d="M3.878 37.956h13.228v314.457H3.878zM250.994 352.554h-13.228V37.814h13.228z" fill-rule="evenodd"/><path fill="#fff" d="M250.995 25.982v12.535H3.877V25.982zM250.995 351.008v12.535H3.877v-12.535z" fill-rule="evenodd"/><path fill="#fff" d="M61.325 32.486c0-16.543 2.708-29.953 6.048-29.953 1.604 0 3.142 3.156 4.276 8.773 1.134 5.617 1.77 13.236 1.77 21.18 0 16.542-2.706 29.952-6.046 29.952-1.604 0-3.142-3.155-4.276-8.773-1.134-5.617-1.772-13.235-1.772-21.18zM121.388 32.486c0-16.543 2.708-29.953 6.048-29.953 1.604 0 3.142 3.156 4.276 8.773 1.134 5.617 1.77 13.236 1.77 21.18 0 16.542-2.707 29.952-6.046 29.952-1.604 0-3.142-3.155-4.276-8.773-1.134-5.617-1.772-13.235-1.772-21.18zM181.451 32.486c0-16.543 2.708-29.953 6.048-29.953 1.604 0 3.142 3.156 4.276 8.773 1.134 5.617 1.77 13.236 1.77 21.18 0 16.542-2.707 29.952-6.046 29.952-1.604 0-3.142-3.155-4.276-8.773-1.134-5.617-1.772-13.235-1.772-21.18zM34.882 91.706h181.732v4.504H34.882zM34.882 115.706h181.732v4.504H34.882zM34.882 139.706h181.732v4.504H34.882zM34.882 163.706h123.78v4.504H34.881zM161.147 246.182L291.95 46.717l18.331 12.032-130.803 199.464zM178.264 259.91l-28.74 23.953 10.504-35.89z" fill-rule="evenodd"/></g></svg>