<svg version="1.1" viewBox="0.0 0.0 311.68766404199476 366.8241469816273" fill="none" stroke="none" stroke-linecap="square" stroke-miterlimit="10" xmlns:xlink="http://www.w3.org/1999/xlink" xmlns="http://www.w3.org/2000/svg"><clipPath id="p.0"><path d="m0 0l311.68765 0l0 366.82416l-311.68765 0l0 -366.82416z" clip-rule="nonzero"/></clipPath><path fill="#000000" fill-opacity="0.0" d="m0 0l311.68765 0l0 366.82416l-311.68765 0z" fill-rule="evenodd"/><path fill="#ffffff" d="m3.882312 37.9563l16.239117 0l0 314.4567l-16.239117 0z" fill-rule="evenodd"/><path fill="#ffffff" d="m307.242 352.55362l-16.239136 0l0 -314.74014l16.239136 0z" fill-rule="evenodd"/><path fill="#ffffff" d="m307.24292 25.981627l0 12.535433l-303.3622 0l0 -12.535433z" fill-rule="evenodd"/><path fill="#ffffff" d="m307.24292 351.00787l0 12.535431l-303.3622 0l0 -12.535431z" fill-rule="evenodd"/><path fill="#ffffff" d="m64.855644 32.485565l0 0c0 -16.54245 2.7074432 -29.952757 6.047241 -29.952757l0 0c1.6038284 0 3.1419678 3.1557279 4.2760468 8.772959c1.134079 5.6172314 1.7712021 13.235832 1.7712021 21.179798l0 0c0 16.54245 -2.7074432 29.952755 -6.047249 29.952755l0 0c-1.6038284 0 -3.1419678 -3.1557274 -4.2760468 -8.772961c-1.134079 -5.6172295 -1.7711945 -13.235832 -1.7711945 -21.179794z" fill-rule="evenodd"/><path fill="#ffffff" d="m225.59317 32.485565l0 0c0 -16.54245 2.7074432 -29.952757 6.0472565 -29.952757l0 0c1.6038208 0 3.1419678 3.1557279 4.2760468 8.772959c1.134079 5.6172314 1.7711945 13.235832 1.7711945 21.179798l0 0c0 16.54245 -2.7074432 29.952755 -6.047241 29.952755l0 0c-1.603836 0 -3.141983 -3.1557274 -4.2760468 -8.772961c-1.134079 -5.6172295 -1.7712097 -13.235832 -1.7712097 -21.179794z" fill-rule="evenodd"/><path fill="#ffffff" d="m36.88188 329.2966l239.99998 0l0 1.88974l-239.99998 0z" fill-rule="evenodd"/><path fill="#ffffff" d="m274.99738 330.7454l0 -188.03148l1.8897705 0l0 188.03148z" fill-rule="evenodd"/><path fill="#ffffff" d="m34.800526 142.14699l242.07875 0l0 1.8897552l-242.07875 0z" fill-rule="evenodd"/><path fill="#ffffff" d="m35.081364 179.7769l239.90552 0l0 1.8897705l-239.90552 0z" fill-rule="evenodd"/><path fill="#ffffff" d="m34.800526 217.40683l241.19685 0l0 1.8897552l-241.19685 0z" fill-rule="evenodd"/><path fill="#ffffff" d="m35.08399 255.03674l241.19687 0l0 1.8897705l-241.19687 0z" fill-rule="evenodd"/><path fill="#ffffff" d="m36.09186 292.66666l239.90552 0l0 1.8897705l-239.90552 0z" fill-rule="evenodd"/><path fill="#ffffff" d="m35.08399 330.30185l0 -187.59056l1.8897667 0l0 187.59056z" fill-rule="evenodd"/><path fill="#ffffff" d="m81.666664 331.18634l0 -188.50392l1.8897629 0l0 188.50392z" fill-rule="evenodd"/><path fill="#ffffff" d="m226.67192 330.96588l0 -189.19685l1.8897552 0l0 189.19685z" fill-rule="evenodd"/><path fill="#ffffff" d="m129.12335 330.85565l0 -188.15749l1.8897705 0l0 188.15749z" fill-rule="evenodd"/><path fill="#ffffff" d="m178.34645 330.96588l0 -188.28346l1.8897705 0l0 188.28346z" fill-rule="evenodd"/><path fill="#1ed2f4" d="m176.3484 189.93338l0 0c3.8877258 -11.158768 19.194656 -15.9673 34.188965 -10.740158l0 0c14.994324 5.227127 23.997986 18.510529 20.110245 29.669281l0 0c-3.887741 11.158768 -19.194656 15.9673 -34.18898 10.740158l0 0c-14.994308 -5.227127 -23.99797 -18.510529 -20.11023 -29.669281zm2.1221619 0.7398071l0 0c-3.47937 9.986633 4.9052124 21.988617 18.727493 26.807175c13.822266 4.8185577 27.848022 0.62898254 31.327377 -9.357651l0 0c3.47937 -9.986649 -4.905197 -21.988632 -18.727478 -26.80719l0 0c-13.822266 -4.8185577 -27.848022 -0.62898254 -31.327393 9.357666z" fill-rule="evenodd"/></svg>