<svg version="1.1" viewBox="0.0 0.0 709.6036745406824 403.753280839895" fill="none" stroke="none" stroke-linecap="square" stroke-miterlimit="10" xmlns:xlink="http://www.w3.org/1999/xlink" xmlns="http://www.w3.org/2000/svg"><clipPath id="p.0"><path d="m0 0l709.6037 0l0 403.7533l-709.6037 0l0 -403.7533z" clip-rule="nonzero"/></clipPath><path fill="#000000" fill-opacity="0.0" d="m0 0l709.6037 0l0 403.7533l-709.6037 0z" fill-rule="evenodd"/><path fill="#ffffff" d="m435.3647 308.75558l-16.308685 -52.941498l0 0c-89.80374 -30.441437 -130.37604 -101.58591 -93.731995 -164.36131c36.644043 -62.775402 138.51196 -96.637314 235.34006 -78.229385c96.828125 18.407928 156.92761 83.06137 138.84467 149.3654c-18.082886 66.30405 -108.43024 112.559494 -208.72467 106.861465z" fill-rule="evenodd"/><path fill="#ffffff" d="m304.98456 395.1171l-65.20163 -37.981995c-95.90193 13.5737915 -192.14401 -21.933289 -222.343 -82.03012c-30.198978 -60.096832 15.528332 -125.11565 105.64137 -150.2095c90.113045 -25.093857 195.1207 -2.0503387 242.59357 53.23622c47.47287 55.28656 21.874634 124.72261 -59.138245 160.41444z" fill-rule="evenodd"/><path fill="#000000" fill-opacity="0.0" d="m408.14697 46.816273l188.0 0l0 184.53543l-188.0 0z" fill-rule="evenodd"/><path fill="#1ed2f4" d="m458.8448 98.25274q0 -14.0625 12.296875 -23.25q12.3125 -9.1875 34.015625 -9.1875q21.703125 0 34.125 8.78125q12.421875 8.78125 12.421875 26.078125q0 11.21875 -5.390625 19.65625q-5.375 8.437492 -14.546875 16.828117l-26.90625 23.875l0 12.953125l-12.421875 0l0 -43.0625q0 -4.7812424 3.1875 -7.9687424l11.5625 -11.75q4.90625 -4.90625 6.640625 -8.953125q1.75 -4.046875 1.75 -10.90625q0 -14.234375 -12.921875 -14.234375q-6.25 0 -8.9375 3.09375q-2.671875 3.078125 -2.671875 5.921875q0 2.84375 -0.078125 2.65625l5.96875 0q2.6875 7.09375 2.6875 13.84375q0 6.734375 -5.890625 11.796875q-5.875 5.0625 -15.15625 5.0625q-9.265625 0 -14.5 -6.171875q-5.234375 -6.171875 -5.234375 -15.0625zm39.375 109.89062q-8.71875 0 -13.21875 -5.21875q-4.5 -5.234375 -4.5 -12.78125q0 -7.546875 4.8125 -12.734375q4.828125 -5.1875 12.9375 -5.1875q8.125 0 13.234375 4.515625q5.125 4.515625 5.125 12.890625q0 8.359375 -4.84375 13.4375q-4.828125 5.078125 -13.546875 5.078125z" fill-rule="nonzero"/></svg>