<svg version="1.1" viewBox="0.0 0.0 259.48818897637796 259.11811023622045" fill="none" stroke="none" stroke-linecap="square" stroke-miterlimit="10" xmlns:xlink="http://www.w3.org/1999/xlink" xmlns="http://www.w3.org/2000/svg"><clipPath id="p.0"><path d="m0 0l259.4882 0l0 259.1181l-259.4882 0l0 -259.1181z" clip-rule="nonzero"/></clipPath><path fill="#000000" fill-opacity="0.0" d="m0 0l259.4882 0l0 259.1181l-259.4882 0z" fill-rule="evenodd"/><path class="background-circle" d="m0 128.89764l0 0c0 -71.1882 57.70944 -128.89764 128.89764 -128.89764l0 0c34.185776 0 66.97139 13.580248 91.144394 37.753242c24.172989 24.172997 37.75325 56.95862 37.75325 91.1444l0 0c0 71.18819 -57.709457 128.89764 -128.89764 128.89764l0 0c-71.1882 0 -128.89764 -57.709457 -128.89764 -128.89764z" fill-rule="evenodd"/><path fill="#000000" fill-opacity="0.0" d="m57.643955 78.75386l143.83673 0l0 100.28659l-143.83673 0z" fill-rule="evenodd"/><path stroke="#000000" stroke-width="12.0" stroke-linejoin="round" stroke-linecap="butt" d="m57.643955 78.75386l143.83673 0l0 100.28659l-143.83673 0z" fill-rule="evenodd"/><path fill="#000000" fill-opacity="0.0" d="m57.880333 96.53469l73.47074 29.606102" fill-rule="evenodd"/><path stroke="#000000" stroke-width="12.0" stroke-linejoin="round" stroke-linecap="butt" d="m57.880333 96.53469l73.47074 29.606102" fill-rule="evenodd"/><path fill="#000000" fill-opacity="0.0" d="m127.0 126.125984l74.84497 -29.877213" fill-rule="evenodd"/><path stroke="#000000" stroke-width="12.0" stroke-linejoin="round" stroke-linecap="butt" d="m127.0 126.125984l74.84497 -29.877213" fill-rule="evenodd"/></svg>