<svg viewBox="0 0 868.16 444.478" fill="none" stroke-linecap="square" stroke-miterlimit="10" xmlns="http://www.w3.org/2000/svg"><clipPath id="a"><path d="M0 0h868.16v444.478H0V0z"/></clipPath><g clip-path="url(#a)"><path fill="none" d="M0 0h868.16v444.478H0z"/><path fill="#fff" d="M4.333 382.092c0-34.45 28.703-62.378 64.11-62.378 17.004 0 33.31 6.572 45.333 18.27 12.023 11.698 18.778 27.564 18.778 44.108 0 34.45-28.703 62.378-64.11 62.378-35.408 0-64.11-27.928-64.11-62.378zm31.19 0c0 17.225 14.739 31.189 32.92 31.189 18.182 0 32.922-13.964 32.922-31.19 0-17.224-14.74-31.188-32.921-31.188-18.182 0-32.922 13.964-32.922 31.189zM226.54 181.486c0-34.45 28.704-62.378 64.11-62.378 17.004 0 33.31 6.572 45.334 18.27 12.023 11.698 18.777 27.564 18.777 44.108 0 34.45-28.703 62.378-64.11 62.378s-64.11-27.928-64.11-62.378zm31.19 0c0 17.225 14.739 31.189 32.92 31.189 18.183 0 32.922-13.964 32.922-31.19 0-17.225-14.74-31.188-32.921-31.188-18.182 0-32.921 13.963-32.921 31.189zM501.604 287.971c0-34.45 28.703-62.378 64.11-62.378 17.003 0 33.31 6.572 45.333 18.27 12.023 11.698 18.777 27.564 18.777 44.108 0 34.45-28.703 62.378-64.11 62.378s-64.11-27.927-64.11-62.378zm31.189 0c0 17.225 14.739 31.19 32.92 31.19 18.183 0 32.922-13.965 32.922-31.19s-14.74-31.189-32.921-31.189c-18.182 0-32.921 13.964-32.921 31.19zM735.942 67.063c0-34.45 28.703-62.378 64.11-62.378 17.004 0 33.31 6.572 45.333 18.27 12.023 11.698 18.778 27.564 18.778 44.108 0 34.45-28.703 62.378-64.11 62.378-35.408 0-64.11-27.928-64.11-62.378zm31.19 0c0 17.225 14.739 31.189 32.92 31.189 18.182 0 32.922-13.964 32.922-31.189s-14.74-31.189-32.922-31.189c-18.181 0-32.92 13.964-32.92 31.189z" fill-rule="evenodd"/><path fill="none" d="M113.776 337.984l131.528-112.378"/><path stroke="#fff" stroke-linejoin="round" stroke-linecap="butt" d="M113.776 337.984l131.528-112.378"/><path fill="none" d="M354.761 181.486l146.835 106.488"/><path stroke="#fff" stroke-linejoin="round" stroke-linecap="butt" d="M354.761 181.486l146.835 106.488"/><path fill="none" d="M611.047 243.863L754.732 111.17"/><path stroke="#fff" stroke-linejoin="round" stroke-linecap="butt" d="M611.047 243.863L754.732 111.17"/></g></svg>