<svg viewBox="0 0 441.877 447.942" fill="none" stroke-linecap="square" stroke-miterlimit="10" xmlns="http://www.w3.org/2000/svg"><clipPath id="a"><path d="M0 0h441.877v447.942H0V0z"/></clipPath><path fill="none" d="M0 0h441.877v447.942H0z"/><path fill="#fff" d="M8.977 54.845h18.998V395.1H8.977z" fill-rule="evenodd"/><path fill="#fff" d="M9.04 55.227c-.31-12.116 4.25-23.73 12.655-32.234 8.404-8.504 19.947-13.183 32.036-12.985l.15 19.217c-7.05-.227-13.776 2.41-18.637 7.307-4.86 4.896-7.44 11.633-7.147 18.667zM53.785 440.472c-12.068.303-23.61-4.355-32.004-12.918-8.395-8.563-12.932-20.303-12.582-32.558l18.985.021c-.358 7.2 2.183 14.09 7.03 19.065 4.85 4.975 11.582 7.6 18.631 7.265zM434.865 395.705h-18.998V55.142h18.998z" fill-rule="evenodd"/><path fill="#fff" d="M434.803 395.328c.307 12.125-4.253 23.748-12.656 32.258-8.402 8.51-19.943 13.193-32.03 12.997l-.152-19.237c7.047.225 13.77-2.414 18.63-7.314 4.859-4.9 7.438-11.64 7.148-18.679zM390.052 9.73c12.07-.304 23.613 4.359 32.01 12.93 8.396 8.572 12.933 20.325 12.581 32.593l-18.984-.024c.36-7.21-2.18-14.108-7.029-19.088-4.85-4.98-11.584-7.608-18.636-7.27z" fill-rule="evenodd"/><path fill="#fff" d="M390.473 9.502v19.163H53.14V9.502zM390.473 421.842v19.162H53.14v-19.162zM108.045 251.7c0-59.811 48.994-108.298 109.433-108.298 29.023 0 56.858 11.41 77.38 31.72 20.523 20.31 32.053 47.856 32.053 76.579C326.91 311.513 277.916 360 217.478 360c-60.439 0-109.433-48.487-109.433-108.3zm22.929 0c0 47.15 38.729 85.37 86.504 85.37 47.775 0 86.504-38.22 86.504-85.37 0-47.148-38.73-85.37-86.504-85.37-47.775 0-86.504 38.222-86.504 85.37zM332.302 86.231c0-9.567 7.953-17.323 17.764-17.323 4.71 0 9.23 1.825 12.56 5.074 3.332 3.249 5.203 7.655 5.203 12.249 0 9.567-7.953 17.323-17.763 17.323-9.811 0-17.764-7.756-17.764-17.323z" fill-rule="evenodd"/></svg>