<svg version="1.1" viewBox="0.0 0.0 684.9422572178478 502.244094488189" fill="none" stroke="none" stroke-linecap="square" stroke-miterlimit="10" xmlns:xlink="http://www.w3.org/1999/xlink" xmlns="http://www.w3.org/2000/svg"><clipPath id="p.0"><path d="m0 0l684.94226 0l0 502.24408l-684.94226 0l0 -502.24408z" clip-rule="nonzero"/></clipPath><path fill="#000000" fill-opacity="0.0" d="m0 0l684.94226 0l0 502.24408l-684.94226 0z" fill-rule="evenodd"/><path fill="#000000" fill-opacity="0.0" d="m45.188976 18.07349l586.92914 0l0 396.6614l-586.92914 0z" fill-rule="evenodd"/><path class="icon-bar-svg-stroke" stroke-width="24.0" stroke-linejoin="round" stroke-linecap="butt" d="m45.188976 18.07349l586.92914 0l0 396.6614l-586.92914 0z" fill-rule="evenodd"/><path fill="#000000" fill-opacity="0.0" d="m51.212597 39.664043l573.38586 0l0 353.48032l-573.38586 0z" fill-rule="evenodd"/><path class="icon-bar-svg-stroke" stroke-width="24.0" stroke-linejoin="round" stroke-linecap="butt" d="m51.212597 39.664043l573.38586 0l0 353.48032l-573.38586 0z" fill-rule="evenodd"/><path d="m331.38583 24.104986l0 0c0 -3.3311024 2.9189453 -6.031496 6.519684 -6.031496l0 0c3.600708 0 6.519684 2.7003937 6.519684 6.031496l0 0c0 3.3311043 -2.9189758 6.031496 -6.519684 6.031496l0 0c-3.6007385 0 -6.519684 -2.7003918 -6.519684 -6.031496z" fill-rule="evenodd"/><path class="icon-bar-svg-fill" d="m657.72943 501.021l-638.1518 0c-2.6633568 0 -5.2176285 -1.0580139 -7.1009054 -2.9412842c-1.8832769 -1.8832703 -2.9412909 -4.437561 -2.9412909 -7.1009216l0 -50.209747c0 -0.0030517578 0.0024557114 -0.005493164 0.0054855347 -0.005493164l658.2308 0.005493164l0 0c0.0029907227 0 0.005493164 0.0024414062 0.005493164 0.0054626465l-0.005493164 50.204285l0 0c0 5.546173 -4.4960327 10.042206 -10.042236 10.042206z" fill-rule="evenodd"/><path fill="#000000" fill-opacity="0.0" d="m251.04724 470.89502l170.70868 0" fill-rule="evenodd"/><path stroke-width="16.0" stroke-linejoin="round" stroke-linecap="butt" d="m251.04724 470.89502l170.70868 0" fill-rule="evenodd"/></svg>