<svg version="1.1" viewBox="0.0 0.0 522.3884514435696 576.3648293963255" fill="none" stroke="none" stroke-linecap="square" stroke-miterlimit="10" xmlns:xlink="http://www.w3.org/1999/xlink" xmlns="http://www.w3.org/2000/svg"><clipPath id="p.0"><path d="m0 0l522.3884 0l0 576.3648l-522.3884 0l0 -576.3648z" clip-rule="nonzero"/></clipPath><path fill="#000000" fill-opacity="0.0" d="m0 0l522.3884 0l0 576.3648l-522.3884 0z" fill-rule="evenodd"/><path fill="#000000" fill-opacity="0.0" d="m30.052494 132.66667l63.14961 39.338577" fill-rule="evenodd"/><path stroke="#eafc40" stroke-width="16.0" stroke-linejoin="round" stroke-linecap="butt" d="m30.052494 132.66667l63.14961 39.338577" fill-rule="evenodd"/><path fill="#000000" fill-opacity="0.0" d="m124.42519 39.33858l48.72442 54.45669" fill-rule="evenodd"/><path stroke="#eafc40" stroke-width="16.0" stroke-linejoin="round" stroke-linecap="butt" d="m124.42519 39.33858l48.72442 54.45669" fill-rule="evenodd"/><path fill="#000000" fill-opacity="0.0" d="m260.7979 9.152231l0.8503723 63.11811" fill-rule="evenodd"/><path stroke="#eafc40" stroke-width="16.0" stroke-linejoin="round" stroke-linecap="butt" d="m260.7979 9.152231l0.8503723 63.11811" fill-rule="evenodd"/><path fill="#000000" fill-opacity="0.0" d="m349.2966 87.81102l53.795258 -48.47244" fill-rule="evenodd"/><path stroke="#eafc40" stroke-width="16.0" stroke-linejoin="round" stroke-linecap="butt" d="m349.2966 87.81102l53.795258 -48.47244" fill-rule="evenodd"/><path fill="#000000" fill-opacity="0.0" d="m427.82678 165.13911l55.149597 -25.606308" fill-rule="evenodd"/><path stroke="#eafc40" stroke-width="16.0" stroke-linejoin="round" stroke-linecap="butt" d="m427.82678 165.13911l55.149597 -25.606308" fill-rule="evenodd"/><path fill="#000000" fill-opacity="0.0" d="m411.6378 335.74014l73.5748 37.543335" fill-rule="evenodd"/><path stroke="#eafc40" stroke-width="16.0" stroke-linejoin="round" stroke-linecap="butt" d="m411.6378 335.74014l73.5748 37.543335" fill-rule="evenodd"/><path fill="#000000" fill-opacity="0.0" d="m30.052494 363.4567l79.33858 -17.88977" fill-rule="evenodd"/><path stroke="#eafc40" stroke-width="16.0" stroke-linejoin="round" stroke-linecap="butt" d="m30.052494 363.4567l79.33858 -17.88977" fill-rule="evenodd"/><path fill="#000000" fill-opacity="0.0" d="m12.509187 265.86615l80.69292 0.6614075" fill-rule="evenodd"/><path stroke="#eafc40" stroke-width="16.0" stroke-linejoin="round" stroke-linecap="butt" d="m12.509187 265.86615l80.69292 0.6614075" fill-rule="evenodd"/><path fill="#000000" fill-opacity="0.0" d="m512.7428 265.53543l-75.55908 1.3228455" fill-rule="evenodd"/><path stroke="#eafc40" stroke-width="16.0" stroke-linejoin="round" stroke-linecap="butt" d="m512.7428 265.53543l-75.55908 1.3228455" fill-rule="evenodd"/><path fill="#000000" fill-opacity="0.0" d="m252.4147 128.6188l0 0c34.93756 0 68.44418 13.016144 93.14877 36.184998c24.70462 23.168869 38.583496 54.59259 38.583496 87.35832l-131.73227 0z" fill-rule="evenodd"/><path fill="#000000" fill-opacity="0.0" d="m252.4147 128.6188l0 0c34.93756 0 68.44418 13.016144 93.14877 36.184998c24.70462 23.168869 38.583496 54.59259 38.583496 87.35832" fill-rule="evenodd"/><path stroke="#eafc40" stroke-width="24.0" stroke-linejoin="round" stroke-linecap="butt" d="m252.4147 128.6188l0 0c34.93756 0 68.44418 13.016144 93.14877 36.184998c24.70462 23.168869 38.583496 54.59259 38.583496 87.35832" fill-rule="evenodd"/><path fill="#000000" fill-opacity="0.0" d="m252.4252 128.6188l0 0c-34.937576 0 -68.4442 13.016144 -93.14879 36.184998c-24.704605 23.168869 -38.583496 54.59259 -38.583496 87.35832l131.73228 0z" fill-rule="evenodd"/><path fill="#000000" fill-opacity="0.0" d="m252.4252 128.6188l0 0c-34.937576 0 -68.4442 13.016144 -93.14879 36.184998c-24.704605 23.168869 -38.583496 54.59259 -38.583496 87.35832" fill-rule="evenodd"/><path stroke="#eafc40" stroke-width="24.0" stroke-linejoin="round" stroke-linecap="butt" d="m252.4252 128.6188l0 0c-34.937576 0 -68.4442 13.016144 -93.14879 36.184998c-24.704605 23.168869 -38.583496 54.59259 -38.583496 87.35832" fill-rule="evenodd"/><path fill="#000000" fill-opacity="0.0" d="m120.68241 251.10498l0 0c0 47.230408 25.25454 90.68338 65.83216 113.27084l60.341064 -113.27084z" fill-rule="evenodd"/><path fill="#000000" fill-opacity="0.0" d="m120.68241 251.10498l0 0c0 47.230408 25.25454 90.68338 65.83216 113.27084" fill-rule="evenodd"/><path stroke="#eafc40" stroke-width="24.0" stroke-linejoin="round" stroke-linecap="butt" d="m120.68241 251.10498l0 0c0 47.230408 25.25454 90.68338 65.83216 113.27084" fill-rule="evenodd"/><path fill="#000000" fill-opacity="0.0" d="m384.15747 251.10498l0 0c0 47.230408 -25.254517 90.68338 -65.83215 113.27084l-60.341064 -113.27084z" fill-rule="evenodd"/><path fill="#000000" fill-opacity="0.0" d="m384.15747 251.10498l0 0c0 47.230408 -25.254517 90.68338 -65.83215 113.27084" fill-rule="evenodd"/><path stroke="#eafc40" stroke-width="24.0" stroke-linejoin="round" stroke-linecap="butt" d="m384.15747 251.10498l0 0c0 47.230408 -25.254517 90.68338 -65.83215 113.27084" fill-rule="evenodd"/><path fill="#000000" fill-opacity="0.0" d="m181.28871 354.04987l0.22047424 92.62991" fill-rule="evenodd"/><path stroke="#eafc40" stroke-width="24.0" stroke-linejoin="round" stroke-linecap="butt" d="m181.28871 354.04987l0.22047424 92.62991" fill-rule="evenodd"/><path fill="#000000" fill-opacity="0.0" d="m324.68503 354.04987l0.2204895 92.62991" fill-rule="evenodd"/><path stroke="#eafc40" stroke-width="24.0" stroke-linejoin="round" stroke-linecap="butt" d="m324.68503 354.04987l0.2204895 92.62991" fill-rule="evenodd"/><path fill="#000000" fill-opacity="0.0" d="m169.63255 451.25198l167.1811 -0.47244263" fill-rule="evenodd"/><path stroke="#eafc40" stroke-width="24.0" stroke-linejoin="round" stroke-linecap="butt" d="m169.63255 451.25198l167.1811 -0.47244263" fill-rule="evenodd"/><path fill="#eafc40" d="m171.85564 481.60635l0 0c0 -1.1162109 0.90486145 -2.0210571 2.0210419 -2.0210571l157.24927 0c0.53601074 0 1.0500793 0.21292114 1.4290771 0.59194946c0.37902832 0.37902832 0.59194946 0.8930664 0.59194946 1.4291077l0 8.083893c0 1.1161804 -0.9048462 2.0210266 -2.0210266 2.0210266l-157.24927 0c-1.1161804 0 -2.0210419 -0.9048462 -2.0210419 -2.0210266z" fill-rule="evenodd"/><path stroke="#eafc40" stroke-width="8.0" stroke-linejoin="round" stroke-linecap="butt" d="m171.85564 481.60635l0 0c0 -1.1162109 0.90486145 -2.0210571 2.0210419 -2.0210571l157.24927 0c0.53601074 0 1.0500793 0.21292114 1.4290771 0.59194946c0.37902832 0.37902832 0.59194946 0.8930664 0.59194946 1.4291077l0 8.083893c0 1.1161804 -0.9048462 2.0210266 -2.0210266 2.0210266l-157.24927 0c-1.1161804 0 -2.0210419 -0.9048462 -2.0210419 -2.0210266z" fill-rule="evenodd"/><path fill="#eafc40" d="m171.86613 511.9003l0 0c0 -1.1161804 0.90486145 -2.0210266 2.0210419 -2.0210266l157.24927 0c0.53601074 0 1.0500793 0.21292114 1.4290771 0.59194946c0.37902832 0.3789978 0.59194946 0.8930664 0.59194946 1.4290771l0 8.083893c0 1.1162109 -0.9048462 2.0210571 -2.0210266 2.0210571l-157.24927 0c-1.1161804 0 -2.0210419 -0.9048462 -2.0210419 -2.0210571z" fill-rule="evenodd"/><path stroke="#eafc40" stroke-width="8.0" stroke-linejoin="round" stroke-linecap="butt" d="m171.86613 511.9003l0 0c0 -1.1161804 0.90486145 -2.0210266 2.0210419 -2.0210266l157.24927 0c0.53601074 0 1.0500793 0.21292114 1.4290771 0.59194946c0.37902832 0.3789978 0.59194946 0.8930664 0.59194946 1.4290771l0 8.083893c0 1.1162109 -0.9048462 2.0210571 -2.0210266 2.0210571l-157.24927 0c-1.1161804 0 -2.0210419 -0.9048462 -2.0210419 -2.0210571z" fill-rule="evenodd"/><path fill="#eafc40" d="m323.06012 539.4278l0 0c-0.3544922 10.861084 -32.782745 19.587646 -72.435745 19.492737c-39.653 -0.0949707 -71.51944 -8.975403 -71.18082 -19.836548l71.80841 0.16796875z" fill-rule="evenodd"/><path stroke="#eafc40" stroke-width="8.0" stroke-linejoin="round" stroke-linecap="butt" d="m323.06012 539.4278l0 0c-0.3544922 10.861084 -32.782745 19.587646 -72.435745 19.492737c-39.653 -0.0949707 -71.51944 -8.975403 -71.18082 -19.836548l71.80841 0.16796875z" fill-rule="evenodd"/><path fill="#000000" fill-opacity="0.0" d="m203.78477 270.80316l25.606308 175.65353" fill-rule="evenodd"/><path stroke="#eafc40" stroke-width="8.0" stroke-linejoin="round" stroke-linecap="butt" d="m203.78477 270.80316l25.606308 175.65353" fill-rule="evenodd"/><path fill="#000000" fill-opacity="0.0" d="m300.75854 270.80316l-20.818909 172.91336" fill-rule="evenodd"/><path stroke="#eafc40" stroke-width="8.0" stroke-linejoin="round" stroke-linecap="butt" d="m300.75854 270.80316l-20.818909 172.91336" fill-rule="evenodd"/><path fill="#000000" fill-opacity="0.0" d="m204.47507 273.2021l26.740158 36.031494" fill-rule="evenodd"/><path stroke="#eafc40" stroke-width="8.0" stroke-linejoin="round" stroke-linecap="butt" d="m204.47507 273.2021l26.740158 36.031494" fill-rule="evenodd"/><path fill="#000000" fill-opacity="0.0" d="m231.23097 307.39633l21.039368 -32.031494" fill-rule="evenodd"/><path stroke="#eafc40" stroke-width="8.0" stroke-linejoin="round" stroke-linecap="butt" d="m231.23097 307.39633l21.039368 -32.031494" fill-rule="evenodd"/><path fill="#000000" fill-opacity="0.0" d="m251.96326 274.0l20.094482 35.118103" fill-rule="evenodd"/><path stroke="#eafc40" stroke-width="8.0" stroke-linejoin="round" stroke-linecap="butt" d="m251.96326 274.0l20.094482 35.118103" fill-rule="evenodd"/><path fill="#000000" fill-opacity="0.0" d="m271.5118 309.7979l28.346466 -36.59845" fill-rule="evenodd"/><path stroke="#eafc40" stroke-width="8.0" stroke-linejoin="round" stroke-linecap="butt" d="m271.5118 309.7979l28.346466 -36.59845" fill-rule="evenodd"/><path fill="#eafc40" d="m248.94751 273.44882l0 0c0 -1.1393738 1.5934448 -2.0629883 3.5590515 -2.0629883l0 0c1.9656067 0 3.5590515 0.9236145 3.5590515 2.0629883l0 0c0 1.1393433 -1.5934448 2.0629883 -3.5590515 2.0629883l0 0c-1.9656067 0 -3.5590515 -0.923645 -3.5590515 -2.0629883z" fill-rule="evenodd"/><path fill="#eafc40" d="m268.44882 310.82416l0 0c0 -1.1393738 1.5934448 -2.0629883 3.5590515 -2.0629883l0 0c1.9656067 0 3.5590515 0.9236145 3.5590515 2.0629883l0 0c0 1.1393433 -1.5934448 2.0629883 -3.5590515 2.0629883l0 0c-1.9656067 0 -3.5590515 -0.923645 -3.5590515 -2.0629883z" fill-rule="evenodd"/><path fill="#eafc40" d="m227.3465 309.92633l0 0c-0.1739502 -1.4350586 1.313736 -2.7958374 3.3228302 -3.0393677l0 0c2.0090942 -0.24353027 3.7788086 0.7224121 3.9527588 2.1574707l0 0c0.1739502 1.4350891 -1.313736 2.795868 -3.3228302 3.0393982l0 0c-2.0091095 0.24349976 -3.7788086 -0.7224121 -3.9527588 -2.1575012z" fill-rule="evenodd"/><path fill="#eafc40" d="m200.01704 271.93597l0 0c-0.09567261 -1.1393433 1.5894318 -2.2181091 3.7637787 -2.4094543l0 0c2.174347 -0.1913147 4.014557 0.57717896 4.1102295 1.7165527l0 0c0.09567261 1.1393433 -1.5894318 2.2181091 -3.7637787 2.4094543l0 0c-2.174347 0.19134521 -4.014557 -0.57717896 -4.1102295 -1.7165527z" fill-rule="evenodd"/><path fill="#eafc40" d="m296.63174 271.18204l0 0c0.12176514 -1.1393738 1.9831238 -1.8796692 4.1574707 -1.6535645l0 0c2.1743774 0.22613525 3.8383179 1.3330994 3.7165527 2.4724426l0 0c-0.12176514 1.1393738 -1.9831238 1.8796997 -4.1574707 1.6535645l0 0c-2.1743774 -0.22613525 -3.8383179 -1.3330994 -3.7165527 -2.4724426z" fill-rule="evenodd"/></svg>