<svg version="1.1" viewBox="0.0 0.0 598.3228346456693 625.7690288713911" fill="none" stroke="none" stroke-linecap="square" stroke-miterlimit="10" xmlns:xlink="http://www.w3.org/1999/xlink" xmlns="http://www.w3.org/2000/svg"><clipPath id="p.0"><path d="m0 0l598.3228 0l0 625.76904l-598.3228 0l0 -625.76904z" clip-rule="nonzero"/></clipPath><path fill="#000000" fill-opacity="0.0" d="m0 0l598.3228 0l0 625.76904l-598.3228 0z" fill-rule="evenodd"/><path class="icon-bar-svg-fill" d="m0 97.00981l0 0c0 -53.577038 43.432774 -97.00981 97.00981 -97.00981l401.57092 0l0 0c25.728577 0 50.403442 10.220648 68.59631 28.413517c18.192871 18.192867 28.413513 42.867695 28.413513 68.5963l0 388.02765c0 53.576996 -43.4328 97.009796 -97.00983 97.009796l-401.57092 0c-53.577038 0 -97.00981 -43.4328 -97.00981 -97.009796z" fill-rule="evenodd"/><path fill="#000000" fill-opacity="0.0" d="m68.40682 4.6902885l644.9764 0l0 548.9134l-644.9764 0z" fill-rule="evenodd"/><path fill="#254558" d="m113.29745 199.25279l0 -63.46875l68.60938 0l0 63.46875l-68.60938 0zm0 294.4375l0 -259.28125l68.60938 0l0 259.28125l-68.60938 0zm374.75977 0l-68.609375 0l0 -132.32812q0 -41.984375 -4.390625 -54.3125q-4.390625 -12.328125 -14.28125 -19.15625q-9.890625 -6.84375 -23.8125 -6.84375q-17.8125 0 -31.984375 9.765625q-14.15625 9.765625 -19.40625 25.875q-5.25 16.109375 -5.25 59.5625l0 117.4375l-68.59375 0l0 -259.28125l63.71875 0l0 38.093735q33.9375 -43.95311 85.453125 -43.95311q22.703125 0 41.5 8.1875q18.796875 8.171875 28.4375 20.874985q9.640625 12.6875 13.421875 28.8125q3.796875 16.109375 3.796875 46.125l0 161.14062z" fill-rule="nonzero"/><path class="icon-bar-svg-fill" d="m94.59318 127.40682l99.71653 0l0 75.02363l-99.71653 0z" fill-rule="evenodd"/><path fill="#254558" d="m107.85302 167.2021l0 0c0 -19.456085 16.385674 -35.228348 36.598427 -35.228348l0 0c9.706497 0 19.015457 3.7115479 25.878998 10.318146c6.8635254 6.606598 10.719421 15.567062 10.719421 24.910202l0 0c0 19.45607 -16.385666 35.228348 -36.59842 35.228348l0 0c-20.212753 0 -36.598427 -15.772278 -36.598427 -35.228348z" fill-rule="evenodd"/></svg>