<svg version="1.1" viewBox="0.0 0.0 676.8188976377953 635.6482939632546" fill="none" stroke="none" stroke-linecap="square" stroke-miterlimit="10" xmlns:xlink="http://www.w3.org/1999/xlink" xmlns="http://www.w3.org/2000/svg"><clipPath id="p.0"><path d="m0 0l676.8189 0l0 635.6483l-676.8189 0l0 -635.6483z" clip-rule="nonzero"/></clipPath><path fill="#000000" fill-opacity="0.0" d="m0 0l676.8189 0l0 635.6483l-676.8189 0z" fill-rule="evenodd"/><path fill="#000000" fill-opacity="0.0" d="m283.97375 195.32545l0 0c0 -100.66367 84.07175 -182.26772 187.77954 -182.26772l0 0c49.802185 0 97.5647 19.203152 132.78015 53.384975c35.215515 34.18183 54.99939 80.54234 54.99939 128.88274l0 0c0 100.66368 -84.07178 182.26772 -187.77954 182.26772l0 0c-103.707794 0 -187.77954 -81.604034 -187.77954 -182.26772z" fill-rule="evenodd"/><path stroke="#eafc40" stroke-width="24.0" stroke-linejoin="round" stroke-linecap="butt" d="m283.97375 195.32545l0 0c0 -100.66367 84.07175 -182.26772 187.77954 -182.26772l0 0c49.802185 0 97.5647 19.203152 132.78015 53.384975c35.215515 34.18183 54.99939 80.54234 54.99939 128.88274l0 0c0 100.66368 -84.07178 182.26772 -187.77954 182.26772l0 0c-103.707794 0 -187.77954 -81.604034 -187.77954 -182.26772z" fill-rule="evenodd"/><path fill="#000000" fill-opacity="0.0" d="m298.0656 194.77428l0 0c0 -91.52271 77.33841 -165.71654 172.74017 -165.71654l0 0c45.813538 0 89.75067 17.45937 122.14575 48.53725c32.39502 31.07788 50.59442 73.22852 50.59442 117.17928l0 0c0 91.52272 -77.33844 165.71654 -172.74017 165.71654l0 0c-95.401764 0 -172.74017 -74.19382 -172.74017 -165.71654z" fill-rule="evenodd"/><path stroke="#eafc40" stroke-width="24.0" stroke-linejoin="round" stroke-linecap="butt" d="m298.0656 194.77428l0 0c0 -91.52271 77.33841 -165.71654 172.74017 -165.71654l0 0c45.813538 0 89.75067 17.45937 122.14575 48.53725c32.39502 31.07788 50.59442 73.22852 50.59442 117.17928l0 0c0 91.52272 -77.33844 165.71654 -172.74017 165.71654l0 0c-95.401764 0 -172.74017 -74.19382 -172.74017 -165.71654z" fill-rule="evenodd"/><path fill="#000000" fill-opacity="0.0" d="m348.66003 311.95355l-326.77164 283.5276" fill-rule="evenodd"/><path stroke="#eafc40" stroke-width="24.0" stroke-linejoin="round" stroke-linecap="butt" d="m348.66003 311.95355l-326.77164 283.5276" fill-rule="evenodd"/><path fill="#000000" fill-opacity="0.0" d="m364.66003 327.95355l-326.77164 283.5276" fill-rule="evenodd"/><path stroke="#eafc40" stroke-width="24.0" stroke-linejoin="round" stroke-linecap="butt" d="m364.66003 327.95355l-326.77164 283.5276" fill-rule="evenodd"/><path fill="#eafc40" d="m8.199591 587.6436l0 0c-4.528536 -5.2301636 -3.9576983 -13.138733 1.2750006 -17.664307l226.94048 -196.27286c2.5128326 -2.1732483 5.7866364 -3.2597656 9.101212 -3.0205383c3.31456 0.23925781 6.3983917 1.784668 8.573074 4.2962646l32.797577 37.878876c4.528534 5.2301636 3.9577026 13.138733 -1.2749939 17.664307l-226.94049 196.27286c-5.2327003 4.5255737 -13.145744 3.9544067 -17.674282 -1.2757568z" fill-rule="evenodd"/></svg>