<svg viewBox="0 0 317.113 576.173" fill="none" stroke-linecap="square" stroke-miterlimit="10" xmlns="http://www.w3.org/2000/svg"><clipPath id="a"><path d="M0 0h317.113v576.173H0V0z"/></clipPath><g clip-path="url(#a)"><path fill="none" d="M0 0h317.113v576.173H0z"/><path fill="#fff" d="M3.467 160.724C3.467 74.351 73.1 4.331 158.995 4.331c41.248 0 80.807 16.477 109.974 45.806 29.167 29.33 45.553 69.11 45.553 110.587 0 86.374-69.632 156.394-155.527 156.394-85.896 0-155.528-70.02-155.528-156.394zm115.215 0c0 22.743 18.049 41.18 40.313 41.18 22.264 0 40.312-18.437 40.312-41.18 0-22.742-18.048-41.178-40.312-41.178s-40.313 18.436-40.313 41.178z" fill-rule="evenodd"/><path fill="#fff" d="M306.066 210.097L158.995 570.538 11.924 210.098z" fill-rule="evenodd"/></g></svg>