<svg version="1.1" viewBox="0.0 0.0 817.4068241469816 504.0997375328084" fill="none" stroke="none" stroke-linecap="square" stroke-miterlimit="10" xmlns:xlink="http://www.w3.org/1999/xlink" xmlns="http://www.w3.org/2000/svg"><clipPath id="p.0"><path d="m0 0l817.4068 0l0 504.09973l-817.4068 0l0 -504.09973z" clip-rule="nonzero"/></clipPath><path fill="#000000" fill-opacity="0.0" d="m0 0l817.4068 0l0 504.09973l-817.4068 0z" fill-rule="evenodd"/><path fill="#000000" fill-opacity="0.0" d="m17.141733 142.62746l0 0c0 -4.4357605 3.5958939 -8.031662 8.031656 -8.031662l32.125664 0l0 0c2.130127 0 4.173012 0.8461914 5.6792374 2.352417c1.5062294 1.5062408 2.3524208 3.549118 2.3524208 5.679245l0 245.00755c0 4.4357605 -3.5958977 8.031647 -8.031658 8.031647l-32.125664 0c-4.4357624 0 -8.031656 -3.5958862 -8.031656 -8.031647z" fill-rule="evenodd"/><path stroke="#eafc40" stroke-width="24.0" stroke-linejoin="round" stroke-linecap="butt" d="m17.141733 142.62746l0 0c0 -4.4357605 3.5958939 -8.031662 8.031656 -8.031662l32.125664 0l0 0c2.130127 0 4.173012 0.8461914 5.6792374 2.352417c1.5062294 1.5062408 2.3524208 3.549118 2.3524208 5.679245l0 245.00755c0 4.4357605 -3.5958977 8.031647 -8.031658 8.031647l-32.125664 0c-4.4357624 0 -8.031656 -3.5958862 -8.031656 -8.031647z" fill-rule="evenodd"/><path fill="#000000" fill-opacity="0.0" d="m566.34644 26.141893l0 0c0 -4.4357624 3.5958862 -8.031656 8.031677 -8.031656l32.12567 0l0 0c2.130127 0 4.1729736 0.8461895 5.6792603 2.352417c1.5062256 1.5062275 2.352417 3.5491104 2.352417 5.6792393l0 454.8973c0 4.4357605 -3.5959473 8.031647 -8.031677 8.031647l-32.12567 0c-4.435791 0 -8.031677 -3.5958862 -8.031677 -8.031647z" fill-rule="evenodd"/><path stroke="#eafc40" stroke-width="24.0" stroke-linejoin="round" stroke-linecap="butt" d="m566.34644 26.141893l0 0c0 -4.4357624 3.5958862 -8.031656 8.031677 -8.031656l32.12567 0l0 0c2.130127 0 4.1729736 0.8461895 5.6792603 2.352417c1.5062256 1.5062275 2.352417 3.5491104 2.352417 5.6792393l0 454.8973c0 4.4357605 -3.5959473 8.031647 -8.031677 8.031647l-32.12567 0c-4.435791 0 -8.031677 -3.5958862 -8.031677 -8.031647z" fill-rule="evenodd"/><path fill="#000000" fill-opacity="0.0" d="m67.79527 165.72441l498.55115 -116.47244" fill-rule="evenodd"/><path stroke="#eafc40" stroke-width="24.0" stroke-linejoin="round" stroke-linecap="butt" d="m67.79527 165.72441l498.55115 -116.47244" fill-rule="evenodd"/><path fill="#000000" fill-opacity="0.0" d="m68.28346 363.54855l500.09448 92.37796" fill-rule="evenodd"/><path stroke="#eafc40" stroke-width="24.0" stroke-linejoin="round" stroke-linecap="butt" d="m68.28346 363.54855l500.09448 92.37796" fill-rule="evenodd"/><path fill="#000000" fill-opacity="0.0" d="m203.54459 391.26895l173.29135 31.40158l-6.929138 38.519684l-173.29135 -31.40158z" fill-rule="evenodd"/><path stroke="#eafc40" stroke-width="24.0" stroke-linejoin="round" stroke-linecap="butt" d="m203.54459 391.26895l173.29135 31.40158l-6.929138 38.519684l-173.29135 -31.40158z" fill-rule="evenodd"/><path fill="#000000" fill-opacity="0.0" d="m662.76117 106.47769l110.456665 -54.23622" fill-rule="evenodd"/><path stroke="#eafc40" stroke-width="24.0" stroke-linejoin="round" stroke-linecap="butt" d="m662.76117 106.47769l110.456665 -54.23622" fill-rule="evenodd"/><path fill="#000000" fill-opacity="0.0" d="m658.20734 253.05511l142.67719 1.0708771" fill-rule="evenodd"/><path stroke="#eafc40" stroke-width="24.0" stroke-linejoin="round" stroke-linecap="butt" d="m658.20734 253.05511l142.67719 1.0708771" fill-rule="evenodd"/><path fill="#000000" fill-opacity="0.0" d="m658.20734 379.61417l128.06299 47.212616" fill-rule="evenodd"/><path stroke="#eafc40" stroke-width="24.0" stroke-linejoin="round" stroke-linecap="butt" d="m658.20734 379.61417l128.06299 47.212616" fill-rule="evenodd"/></svg>