<svg viewBox="0 0 227 157" fill="none" stroke-linecap="square" stroke-miterlimit="10" xmlns="http://www.w3.org/2000/svg"><clipPath id="a"><path d="M0 0h227v157H0V0z"/></clipPath><g clip-path="url(#a)"><path fill="none" d="M0 0h227v157H0z"/><path fill="#fff" d="M0 135.609a4.278 4.278 0 0 1 4.278-4.278h218.436a4.278 4.278 0 0 1 4.278 4.278v17.113a4.278 4.278 0 0 1-4.278 4.278H4.278A4.278 4.278 0 0 1 0 152.722zM0 4.278A4.278 4.278 0 0 1 4.278 0h218.436a4.278 4.278 0 0 1 4.278 4.278v17.113a4.278 4.278 0 0 1-4.278 4.278H4.278A4.278 4.278 0 0 1 0 21.391zM0 69.944a4.278 4.278 0 0 1 4.278-4.279h218.436a4.278 4.278 0 0 1 4.278 4.279v17.112a4.278 4.278 0 0 1-4.278 4.279H4.278A4.278 4.278 0 0 1 0 87.056z" fill-rule="evenodd"/></g></svg>