<svg fill="none" stroke-linecap="square" stroke-miterlimit="10" version="1.1" viewBox="0.0 0.0 400.0498687664042 399.37007874015745" xmlns="http://www.w3.org/2000/svg">
<clipPath id="a">
<path d="m0 0h400.05v399.37h-400.05v-399.37z"/>
</clipPath>
<path d="m0 0h400.05v399.37h-400.05z" fill="#000" fill-opacity="0"/>
<path d="m28.995 3.3675c3.5196-3.5196 9.2259-3.5195 12.745 2.7347e-4l354.09 354.12c1.6901 1.6902 2.6396 3.9827 2.6395 6.373-6.1035e-5 2.3903-0.94962 4.6827-2.6398 6.3729l-25.491 25.491c-3.5196 3.5196-9.2259 3.5195-12.745-2.7466e-4l-354.09-354.12c-3.5195-3.5198-3.5193-9.2263 2.737e-4 -12.746z" fill="#fff"/>
<path d="m566.06 267.38h382.65v44.63h-382.65z" fill="#000" fill-opacity="0"/>
<path d="m395.84 28.874c3.5196 3.5196 3.5195 9.2259-2.7466e-4 12.745l-354.12 354.09c-1.6903 1.6901-3.9827 2.6396-6.373 2.6395-2.3903-6.1035e-5 -4.6827-0.94962-6.3729-2.6398l-25.491-25.491c-3.5196-3.5196-3.5195-9.2259 2.7347e-4 -12.745l354.12-354.09c3.5197-3.5195 9.2263-3.5193 12.746 2.7347e-4z" fill="#fff"/>
</svg>
