<svg viewBox="0 0 440.609 545.42" fill="none" stroke-linecap="square" stroke-miterlimit="10" xmlns="http://www.w3.org/2000/svg"><clipPath id="a"><path d="M0 0h440.609v545.42H0V0z"/></clipPath><g clip-path="url(#a)"><path fill="none" d="M0 0h440.609v545.42H0z"/><path fill="#eafc40" d="M56.785 542.883L5.37 2 437.1 92.206z" fill-rule="evenodd"/><path fill="#1ed2f4" d="M436.222 91.861l-24.419 321.92L56.064 542.066z" fill-rule="evenodd"/><path fill="none" d="M86.092-42.995H407.1V254.99H86.092z"/><path fill="#254558" d="M202.295 149.599v137.203q0 38 6.39 44.406 3.61 3.203 9.61 3.203 12 0 21.594-15.593 9.61-15.61 9.61-41.219v-124.39l70.796-3.61v166.406q0 17.203 11.594 17.203 13.61 0 16-41.203l6 .406q-1.594 35.188-13.203 48.391-11.594 13.203-36.204 13.203-24.593 0-37.796-10.797-13.188-10.797-17.188-28.797-6.406 17.594-19.61 28.797-13.202 11.203-29 11.203-15.796 0-27.202-6.593-11.391-6.61-21-27.407l-1.594 1.188 23.203 56.812q1.594 4 4.797 11.594 3.203 7.594 4.203 10.39 1 2.813 2.594 7.204 2.797 8.406 2.797 15.406t-8 12.594q-8 5.61-17.188 3.61l-36.406-7.61v-278.39l75.203-3.61z"/></g></svg>