<svg viewBox="0 0 482 573" fill="none" stroke-linecap="square" stroke-miterlimit="10" xmlns="http://www.w3.org/2000/svg"><clipPath id="a"><path d="M0 0h482v573H0V0z"/></clipPath><path fill="none" d="M0 0h482v573H0z"/><path fill="#eafc40" d="M89.192 564.673L37.777 23.791l431.73 90.205z" fill-rule="evenodd"/><path fill="#1ed2f4" d="M468.629 113.651l-24.419 321.92L88.471 563.856z" fill-rule="evenodd"/><path fill="none" d="M118.499-21.205h321.008V276.78H118.499z"/><path fill="#254558" d="M234.702 171.389v137.203q0 38 6.39 44.406 3.61 3.204 9.61 3.204 12 0 21.594-15.594 9.609-15.61 9.609-41.219v-124.39l70.797-3.61v166.406q0 17.203 11.594 17.203 13.609 0 16-41.203l6 .407q-1.594 35.187-13.204 48.39-11.593 13.203-36.203 13.203-24.593 0-37.797-10.797-13.187-10.796-17.187-28.796-6.406 17.593-19.61 28.796-13.203 11.204-29 11.204-15.796 0-27.203-6.594-11.39-6.61-21-27.406l-1.593 1.187 23.203 56.813q1.594 4 4.797 11.593 3.203 7.594 4.203 10.39 1 2.813 2.594 7.204 2.796 8.406 2.796 15.406t-8 12.594q-8 5.61-17.187 3.61l-36.406-7.61v-278.39l75.203-3.61z"/></svg>