<svg version="1.1" viewBox="0.0 0.0 440.6089238845144 545.4199475065617" fill="none" stroke="none" stroke-linecap="square" stroke-miterlimit="10" xmlns:xlink="http://www.w3.org/1999/xlink" xmlns="http://www.w3.org/2000/svg"><clipPath id="p.0"><path d="m0 0l440.60892 0l0 545.4199l-440.60892 0l0 -545.4199z" clip-rule="nonzero"/></clipPath><g clip-path="url(#p.0)"><path fill="#000000" fill-opacity="0.0" d="m0 0l440.60892 0l0 545.4199l-440.60892 0z" fill-rule="evenodd"/><path fill="#eafc40" d="m56.784775 542.88293l-51.41424 -540.8823l431.7292 90.20516z" fill-rule="evenodd"/><path fill="#1ed2f4" d="m436.22192 91.861145l-24.418488 321.92017l-355.73898 128.28455z" fill-rule="evenodd"/><path fill="#000000" fill-opacity="0.0" d="m86.091866 -42.99475l321.00787 0l0 297.98425l-321.00787 0z" fill-rule="evenodd"/><path fill="#254558" d="m202.29498 149.599l0 137.20312q0 38.0 6.390625 44.40625q3.609375 3.203125 9.609375 3.203125q12.0 0 21.59375 -15.59375q9.609375 -15.609375 9.609375 -41.21875l0 -124.390625l70.796875 -3.609375l0 166.40625q0 17.203125 11.59375 17.203125q13.609375 0 16.0 -41.203125l6.0 0.40625q-1.59375 35.1875 -13.203125 48.390625q-11.59375 13.203125 -36.203125 13.203125q-24.59375 0 -37.796875 -10.796875q-13.1875 -10.796875 -17.1875 -28.796875q-6.40625 17.59375 -19.609375 28.796875q-13.203125 11.203125 -29.0 11.203125q-15.796875 0 -27.203125 -6.59375q-11.390625 -6.609375 -21.0 -27.40625l-1.59375 1.1875l23.203125 56.8125q1.59375 4.0 4.796875 11.59375q3.203125 7.59375 4.203125 10.390625q1.0 2.8125 2.59375 7.203125q2.796875 8.40625 2.796875 15.40625q0 7.0 -8.0 12.59375q-8.0 5.609375 -17.1875 3.609375l-36.406242 -7.609375l0 -278.39062l75.20312 -3.609375z" fill-rule="nonzero"/></g></svg>