<svg viewBox="0 0 624.693 648.953" fill="none" stroke-linecap="square" stroke-miterlimit="10" xmlns="http://www.w3.org/2000/svg"><clipPath id="a"><path d="M0 0h624.693v648.953H0V0z"/></clipPath><g clip-path="url(#a)"><path fill="none" d="M0 0h624.693v648.953H0z"/><path fill="#fff" d="M258.842 591.965C99.375 571.492-13.076 423.887 7.676 262.28 28.428 100.674 174.524-13.737 333.991 6.737 493.458 27.21 605.908 174.816 585.157 336.422l-288.74-37.07z" fill-rule="evenodd"/><path fill="#d9d9d9" d="M292.475 644.443l8.711-333.02L424.57 620.411z" fill-rule="evenodd"/><path fill="#efefef" d="M494.858 582.54L304.972 309.538l317.76 92.468z" fill-rule="evenodd"/><path fill="#efefef" d="M622.135 402.23c-18.881 75.764-64.424 140.263-127.603 180.713z" fill-rule="evenodd"/><path fill="#d9d9d9" d="M424.296 620.347c-42.14 17.718-87.057 25.866-131.54 23.864z" fill-rule="evenodd"/></g></svg>