<svg viewBox="0 0 287.102 407.651" fill="none" stroke-linecap="square" stroke-miterlimit="10" xmlns="http://www.w3.org/2000/svg"><clipPath id="a"><path d="M0 0h287.102v407.65H0V0z"/></clipPath><g clip-path="url(#a)"><path fill="none" d="M0 0h287.102v407.65H0z"/><path class="portfolio-shell-main-colour" d="M-604.777 468.076a4.273 4.273 0 0 1-4.273-4.273V-97.698a4.273 4.273 0 0 1 4.273-4.273h17.092a4.273 4.273 0 0 1 4.273 4.273v561.501a4.273 4.273 0 0 1-4.273 4.273z"/><path class="portfolio-shell-secondary-colour" d="M-262.484-90.38a5.213 5.213 0 1 1 10.425 0 5.213 5.213 0 0 1-10.425 0z"/><path class="portfolio-shell-main-colour" d="M-.402 7.082A7.832 7.832 0 0 1 7.431-.751h226.32a7.832 7.832 0 0 1 7.832 7.833v31.327a7.832 7.832 0 0 1-7.832 7.832H7.43A7.832 7.832 0 0 1-.402 38.41z"/><path class="portfolio-shell-main-colour" d="M1.268 423.25a1.67 1.67 0 0 1-1.67-1.67V12.919a1.67 1.67 0 0 1 1.67-1.67h6.677c.922 0 1.67.748 1.67 1.67V421.58a1.67 1.67 0 0 1-1.67 1.67zM233.236 423.25a1.67 1.67 0 0 1-1.67-1.67V12.919a1.67 1.67 0 0 1 1.67-1.67h6.677c.922 0 1.67.748 1.67 1.67V421.58a1.67 1.67 0 0 1-1.67 1.67z"/><path class="portfolio-shell-main-colour" d="M-667.995 399.546c0-.96.778-1.738 1.738-1.738h962.162a1.738 1.738 0 0 1 1.738 1.738v6.95c0 .96-.778 1.738-1.738 1.738h-962.162c-.96 0-1.738-.778-1.738-1.738z"/><path class="portfolio-shell-secondary-colour" d="M90.087 18.2a.95.95 0 0 1 .95-.95h59.107a.95.95 0 0 1 .95.95V22a.95.95 0 0 1-.95.95H91.037a.95.95 0 0 1-.95-.95z"/></g></svg>