<svg viewBox="0 0 845.388 472.892" fill="none" stroke-linecap="square" stroke-miterlimit="10" xmlns="http://www.w3.org/2000/svg"><clipPath id="a"><path d="M0 0h845.388v472.892H0V0z"/></clipPath><g clip-path="url(#a)"><path fill="none" d="M0 0h845.388v472.892H0z"/><path class="portfolio-shell-main-colour" d="M40.908 3.874A3.864 3.864 0 0 1 44.772.01h695.832a3.864 3.864 0 0 1 3.863 3.864v15.454a3.864 3.864 0 0 1-3.863 3.864H44.772a3.864 3.864 0 0 1-3.864-3.864z"/><path class="portfolio-shell-main-colour" d="M45.181 570.058a4.273 4.273 0 0 1-4.273-4.273V4.284A4.273 4.273 0 0 1 45.181.01h17.092a4.273 4.273 0 0 1 4.273 4.273v561.5a4.273 4.273 0 0 1-4.273 4.274z"/><path class="portfolio-shell-secondary-colour" d="M387.474 11.601a5.213 5.213 0 1 1 10.425 0 5.213 5.213 0 0 1-10.425 0z"/><path class="portfolio-shell-main-colour" d="M-19.092 464.543c0-.96.778-1.737 1.738-1.737h962.162a1.737 1.737 0 0 1 1.738 1.737v6.95c0 .96-.778 1.738-1.738 1.738H-17.354c-.96 0-1.738-.778-1.738-1.738z"/><path class="portfolio-shell-main-colour" d="M723.102 511.78a4.273 4.273 0 0 1-4.273-4.274V4.273A4.273 4.273 0 0 1 723.103 0h17.091a4.273 4.273 0 0 1 4.273 4.273v503.233a4.273 4.273 0 0 1-4.273 4.274z"/></g></svg>