<svg viewBox="0 0 474.801 372.564" fill="none" stroke-linecap="square" stroke-miterlimit="10" xmlns="http://www.w3.org/2000/svg"><clipPath id="a"><path d="M0 0h474.8v372.564H0V0z"/></clipPath><path fill="none" d="M0 0h474.8v372.564H0z"/><path fill="#1ed2f4" d="M69.214 114.467L372.962 11.04l21.7 262.547z" fill-rule="evenodd"/><path fill="#254558" d="M466.3 306.856l-260.184 53.141L22.143 78.101z" fill-rule="evenodd"/><path fill="none" d="M191.28 60.486h89.23v140.346h-89.23z"/><path fill="#eafc40" d="M291.328 222.717l9.843 21.687q-5.187 2.828-11.984 4.594-6.781 1.781-13.172 1.781-8.203 0-21.875-3.875t-20.234-3.875q-11.11 0-22.688 7.938l-9.75-22.063q10.297-7.375 14.797-15.718 4.516-8.344 4.516-15.907 0-2.453-.36-5.187h-18.953v-20.14h14.313q-3.75-10.766-3.75-21.782 0-9.938 5.422-18.953 5.437-9.031 15.36-13.719 9.937-4.703 21.702-4.703 17.953 0 28.61 9.078 10.671 9.063 13.03 26.016l-24.687 3.64q-1.734-9.75-6.297-14.03-4.562-4.282-11.39-4.282-7.297 0-12.125 4.875t-4.828 12.25q0 3.828 1.312 10.125 1.328 6.281 3.25 11.484h28.438v20.14h-24.25q.281 2 .281 4 0 7.204-2.734 13.313-2.735 6.11-11.22 16.047 5.016-2.562 12.579-2.562 3.187 0 5.734.375 1.282.172 7.485 1.718 11.031 2.829 15.031 2.829 7.11 0 18.594-5.094z"/></svg>