<svg version="1.1" viewBox="0.0 0.0 129.22834645669292 193.3464566929134" fill="none" stroke="none" stroke-linecap="square" stroke-miterlimit="10" xmlns:xlink="http://www.w3.org/1999/xlink" xmlns="http://www.w3.org/2000/svg"><clipPath id="p.0"><path d="m0 0l129.22835 0l0 193.34645l-129.22835 0l0 -193.34645z" clip-rule="nonzero"/></clipPath><g clip-path="url(#p.0)"><path fill="#000000" fill-opacity="0.0" d="m0 0l129.22835 0l0 193.34645l-129.22835 0z" fill-rule="evenodd"/><path fill="#000000" fill-opacity="0.0" d="m-12.052493 -76.13517l163.71654 0l0 288.56693l-163.71654 0z" fill-rule="evenodd"/><path fill="#ffffff" d="m59.61938 132.86482q0 -10.937492 3.59375 -19.203117q3.5937538 -8.265625 8.921879 -14.125q5.34375 -5.875 13.875 -13.328125q11.46875 -10.140625 16.9375 -17.734375q5.46875 -7.609375 5.46875 -18.53125q0 -14.671875 -11.46875 -23.59375q-11.46875 -8.9375 -31.46875 -8.9375q-33.062504 0 -50.937504 21.59375l-14.125 -10.671875q22.65625 -27.734375 66.390625 -27.734375q28.0 0 44.65625 12.546875q16.671875 12.531251 16.671875 33.859375q0 10.9375 -3.59375 19.34375q-3.59375 8.390625 -8.796875 14.265625q-5.203125 5.859375 -13.734375 13.59375q-11.46875 10.390625 -17.078125 18.53125q-5.59375 8.125 -5.59375 20.124992l-19.718754 0zm9.859379 57.328125q-5.875004 0 -9.875004 -4.125q-3.984375 -4.140625 -3.984375 -9.734375q0 -5.875 3.984375 -9.734375q4.0 -3.859375 9.875004 -3.859375q6.125 0 10.125 3.859375q4.0 3.859375 4.0 9.734375q0 5.59375 -4.140625 9.734375q-4.125 4.125 -9.984375 4.125z" fill-rule="nonzero"/></g></svg>