<svg version="1.1" viewBox="0.0 0.0 693.8923884514436 686.8608923884515" fill="none" stroke="none" stroke-linecap="square" stroke-miterlimit="10" xmlns:xlink="http://www.w3.org/1999/xlink" xmlns="http://www.w3.org/2000/svg"><clipPath id="p.0"><path d="m0 0l693.8924 0l0 686.8609l-693.8924 0l0 -686.8609z" clip-rule="nonzero"/></clipPath><path fill="#000000" fill-opacity="0.0" d="m0 0l693.8924 0l0 686.8609l-693.8924 0z" fill-rule="evenodd"/><path fill="#000000" fill-opacity="0.0" d="m42.175854 341.86353l0 0c0 -166.65955 135.99968 -301.7638 303.7638 -301.7638l0 0c80.56317 0 157.82666 31.792877 214.7934 88.38456c56.966797 56.59169 88.9704 133.34648 88.9704 213.37923l0 0c0 166.65952 -135.9997 301.7638 -303.7638 301.7638l0 0c-167.7641 0 -303.7638 -135.10428 -303.7638 -301.7638z" fill-rule="evenodd"/><path class="icon-bar-svg-stroke" stroke-width="24.0" stroke-linejoin="round" stroke-linecap="butt" d="m42.175854 341.86353l0 0c0 -166.65955 135.99968 -301.7638 303.7638 -301.7638l0 0c80.56317 0 157.82666 31.792877 214.7934 88.38456c56.966797 56.59169 88.9704 133.34648 88.9704 213.37923l0 0c0 166.65952 -135.9997 301.7638 -303.7638 301.7638l0 0c-167.7641 0 -303.7638 -135.10428 -303.7638 -301.7638z" fill-rule="evenodd"/><path fill="#000000" fill-opacity="0.0" d="m122.979004 344.87927l0 0c0 -119.50226 99.822876 -216.37796 222.96063 -216.37796l0 0c59.132843 0 115.84375 22.79689 157.65698 63.37564c41.813232 40.578735 65.30365 95.615326 65.30365 153.00232l0 0c0 119.50223 -99.822876 216.37793 -222.96063 216.37793l0 0c-123.13776 0 -222.96063 -96.8757 -222.96063 -216.37793z" fill-rule="evenodd"/><path class="icon-bar-svg-stroke" stroke-width="16.0" stroke-linejoin="round" stroke-linecap="butt" d="m122.979004 344.87927l0 0c0 -119.50226 99.822876 -216.37796 222.96063 -216.37796l0 0c59.132843 0 115.84375 22.79689 157.65698 63.37564c41.813232 40.578735 65.30365 95.615326 65.30365 153.00232l0 0c0 119.50223 -99.822876 216.37793 -222.96063 216.37793l0 0c-123.13776 0 -222.96063 -96.8757 -222.96063 -216.37793z" fill-rule="evenodd"/><path fill="#000000" fill-opacity="0.0" d="m163.3412 349.02625l0 0c0 -97.889206 80.34198 -177.2441 179.44884 -177.2441l0 0c47.592773 0 93.23627 18.673874 126.889465 51.91359c33.653168 33.239716 52.559326 78.32245 52.559326 125.330505l0 0c0 97.88922 -80.34195 177.24408 -179.44879 177.24408l0 0c-99.10686 0 -179.44884 -79.35486 -179.44884 -177.24408z" fill-rule="evenodd"/><path class="icon-bar-svg-stroke" stroke-width="12.0" stroke-linejoin="round" stroke-linecap="butt" d="m163.3412 349.02625l0 0c0 -97.889206 80.34198 -177.2441 179.44884 -177.2441l0 0c47.592773 0 93.23627 18.673874 126.889465 51.91359c33.653168 33.239716 52.559326 78.32245 52.559326 125.330505l0 0c0 97.88922 -80.34195 177.24408 -179.44879 177.24408l0 0c-99.10686 0 -179.44884 -79.35486 -179.44884 -177.24408z" fill-rule="evenodd"/><path class="icon-bar-svg-fill" d="m260.60104 349.02625l0 0c0 -45.09601 36.79727 -81.653534 82.188995 -81.653534l0 0c21.797852 0 42.70294 8.602753 58.116364 23.915771c15.413422 15.312988 24.072601 36.08191 24.072601 57.737762l0 0c0 45.09601 -36.79727 81.653534 -82.188965 81.653534l0 0c-45.391724 0 -82.188995 -36.557526 -82.188995 -81.653534z" fill-rule="evenodd"/><path fill="#000000" fill-opacity="0.0" d="m1.0367454 349.53018l689.8898 -1.0078735" fill-rule="evenodd"/><path class="icon-bar-svg-stroke" stroke-width="12.0" stroke-linejoin="round" stroke-linecap="butt" d="m1.0367454 349.53018l689.8898 -1.0078735" fill-rule="evenodd"/><path fill="#000000" fill-opacity="0.0" d="m342.33334 683.3123l0.9133606 -682.89764" fill-rule="evenodd"/><path class="icon-bar-svg-stroke" stroke-width="12.0" stroke-linejoin="round" stroke-linecap="butt" d="m342.33334 683.3123l0.9133606 -682.89764" fill-rule="evenodd"/></svg>